<svg width="364" height="364" viewBox="0 0 364 364" fill="none" xmlns="http://www.w3.org/2000/svg">
<path d="M106.003 293.247C105.076 293.384 103.986 293.456 103.765 294.56C103.594 295.416 103.659 296.296 104.171 297.038C105.048 298.306 106.349 299.046 107.917 298.785C109.319 298.551 111.244 297.281 111.244 295.704C111.244 294.814 110.603 293.919 110.073 293.253C109.505 292.54 109.014 291.789 108.299 291.206C107.334 290.419 106.555 290.342 105.688 291.27C105.213 291.777 104.764 292.47 104.557 293.135C104.454 293.462 104.529 293.725 104.529 294.054C104.529 294.492 104.448 293.846 104.529 293.629" stroke="#00ADB5" stroke-linecap="round" stroke-linejoin="round"/>
<path d="M110.807 295.753C111.596 296.454 112.264 297.087 113.659 297.121C114.636 297.145 115.612 296.901 116.527 296.639C117.182 296.451 119.283 295.456 117.581 295.376" stroke="#00ADB5" stroke-linecap="round" stroke-linejoin="round"/>
<path d="M118.941 289.644C117.9 290.794 116.464 293.046 117.003 294.772C117.193 295.38 117.468 295.788 117.825 296.307C118.543 297.351 119.655 297.026 120.664 296.753C121.395 296.555 122.264 295.932 122.544 295.224C122.93 294.247 122.125 292.719 121.452 292.046C120.701 291.295 120.106 290.381 119.269 289.723C119.046 289.548 118.877 289.358 118.586 289.423C118.26 289.495 118.125 289.808 118.559 289.808" stroke="#00ADB5" stroke-linecap="round" stroke-linejoin="round"/>
<path d="M192.528 132.132C191.601 132.269 190.51 132.342 190.29 133.445C190.119 134.301 190.183 135.181 190.696 135.923C191.572 137.191 192.874 137.931 194.442 137.67C195.843 137.436 197.768 136.166 197.768 134.589C197.768 133.699 197.128 132.804 196.598 132.138C196.03 131.425 195.539 130.675 194.824 130.091C193.859 129.304 193.08 129.227 192.212 130.155C191.738 130.663 191.289 131.355 191.081 132.02C190.979 132.348 191.054 132.61 191.054 132.939C191.054 133.377 190.973 132.731 191.054 132.514" stroke="#00ADB5" stroke-linecap="round" stroke-linejoin="round"/>
<path d="M197.332 134.639C198.121 135.339 198.789 135.972 200.184 136.007C201.16 136.031 202.137 135.787 203.052 135.524C203.707 135.337 205.807 134.342 204.105 134.261" stroke="#00ADB5" stroke-linecap="round" stroke-linejoin="round"/>
<path d="M205.466 128.529C204.425 129.679 202.988 131.931 203.528 133.658C203.717 134.265 203.993 134.674 204.35 135.192C205.067 136.236 206.179 135.911 207.188 135.638C207.92 135.441 208.788 134.818 209.068 134.11C209.455 133.132 208.65 131.604 207.977 130.931C207.225 130.18 206.63 129.266 205.793 128.608C205.57 128.433 205.401 128.243 205.111 128.308C204.784 128.381 204.65 128.693 205.083 128.693" stroke="#00ADB5" stroke-linecap="round" stroke-linejoin="round"/>
<path d="M112.688 98.7158C118.032 96.1696 122.352 91.9598 126.696 87.9899C130.111 84.8697 133.691 81.7865 137.459 79.0939C138.203 78.5626 139.253 77.4934 140.258 77.9491C141.254 78.4007 141.829 79.6302 142.616 80.3582C144.554 82.1512 146.297 84.3422 147.891 86.4492C149.646 88.7686 147.015 90.0523 145.388 91.5709C143.541 93.2959 141.776 95.0747 139.758 96.5968C137.84 98.0437 136.299 100.038 134.543 101.676C131.866 104.172 129.363 106.829 126.695 109.328C125.106 110.816 123.283 112.03 121.754 113.57C121.218 114.11 120.722 114.823 120.104 115.273C119.607 115.634 118.92 114.246 118.743 113.984C117.34 111.909 115.167 110.49 113.793 108.32C112.93 106.955 112.349 105.271 111.315 104.025C110.821 103.43 109.587 102.091 110.128 101.222C110.68 100.335 112.247 99.9096 113.102 99.2741C113.768 98.7788 114.578 98.1672 115.337 97.8228C115.888 97.5724 116.429 97.1287 116.922 96.787C118.219 95.8877 116.845 96.2721 115.967 96.6063" stroke="#00ADB5" stroke-linecap="round" stroke-linejoin="round"/>
<path d="M113.504 102.789C116.758 104.804 119.676 107.718 122.216 110.593C122.28 110.666 122.898 111.096 122.804 111.256C122.622 111.564 120.51 110.174 120.309 110.035" stroke="#00ADB5" stroke-linecap="round" stroke-linejoin="round"/>
<path d="M116.729 99.8776C119.367 100.633 120.939 102.07 123.069 103.608C124.017 104.293 124.984 104.911 125.835 105.716C126.235 106.094 126.52 106.593 126.889 107C127.395 107.559 125.328 106.351 125.084 106.212" stroke="#00ADB5" stroke-linecap="round" stroke-linejoin="round"/>
<path d="M120.562 97.6203C122.408 99.2862 124.263 100.929 126.167 102.528C126.89 103.135 127.711 103.693 128.336 104.408C129.445 105.678 127.993 104.03 127.499 103.565" stroke="#00ADB5" stroke-linecap="round" stroke-linejoin="round"/>
<path d="M123.148 96.0323C124.517 96.8647 125.948 97.6713 127.107 98.7937C127.582 99.2542 127.977 99.7968 128.485 100.223C129.112 100.749 129.66 101.362 130.291 101.872C131.189 102.6 131.324 102.812 130.257 101.899" stroke="#00ADB5" stroke-linecap="round" stroke-linejoin="round"/>
<path d="M126.483 93.5879C127.993 94.77 129.391 95.9704 130.654 97.4125C131.213 98.0511 131.664 98.7884 132.374 99.2783C133.025 99.7272 133.481 99.8569 132.719 99.1275" stroke="#00ADB5" stroke-linecap="round" stroke-linejoin="round"/>
<path d="M129.692 91.0967C131.022 92.0961 132.333 93.0084 133.396 94.2955C133.882 94.8848 134.266 95.562 134.809 96.1055C135.912 97.2091 135.154 96.6528 134.356 95.9037" stroke="#00ADB5" stroke-linecap="round" stroke-linejoin="round"/>
<path d="M132.653 88.5119C134.52 90.2981 136.084 92.3903 137.954 94.1546C139.214 95.3425 137.409 93.4389 137.114 93.1007" stroke="#00ADB5" stroke-linecap="round" stroke-linejoin="round"/>
<path d="M136.267 86.457C137.839 85.8153 139.469 85.0504 140.314 83.4823C140.547 83.0499 140.847 82.6735 140.942 82.1862C141.074 81.517 141.048 81.8041 140.552 82.2372" stroke="#00ADB5" stroke-linecap="round" stroke-linejoin="round"/>
<path d="M138.797 88.6152C140.043 87.459 141.436 86.196 142.349 84.7283C142.805 83.9962 143.672 83.1027 142.459 84.1615" stroke="#00ADB5" stroke-linecap="round" stroke-linejoin="round"/>
<path d="M142.792 91.0387C143.928 89.805 144.938 88.6576 145.983 87.3676C146.32 86.9508 147.349 86.4099 146.111 86.7407" stroke="#00ADB5" stroke-linecap="round" stroke-linejoin="round"/>
<path d="M141.889 90.4154C143.077 89.3971 144.421 88.2115 145.363 86.9256C145.614 86.5826 145.807 86.2005 146.037 85.8441C146.423 85.2471 146.447 85.4487 145.863 85.51" stroke="#00ADB5" stroke-linecap="round" stroke-linejoin="round"/>
<path d="M116.712 104.847C122.632 102.442 124.093 95.9148 128.918 92.2236C129.505 91.7746 129.981 91.2754 130.666 90.9646C131.123 90.7568 131.688 90.6573 132.105 90.3914C132.359 90.2291 134.469 88.6172 133.003 89.2831" stroke="#00ADB5" stroke-linecap="round" stroke-linejoin="round"/>
<path d="M113.956 103.101C114.62 102.293 115.21 101.602 116.053 101.018C116.191 100.922 116.404 100.906 116.518 100.778C116.743 100.524 117.084 100.153 117.171 99.8263C117.513 98.5384 119.183 98.7765 120.07 98.1307C120.914 97.5164 121.726 96.8945 122.587 96.2875C123.534 95.6187 123.973 95.0323 124.734 94.1754C125.433 93.3883 126.112 92.5921 126.852 91.8469C127.457 91.2373 128.408 90.6829 128.794 89.9026C129.229 89.0221 130.34 88.0143 131.341 88.1775C131.684 88.2336 134.209 89.6967 132.559 88.7612" stroke="#00ADB5" stroke-linecap="round" stroke-linejoin="round"/>
<path d="M119.313 106.249C123.762 103.903 126.231 98.7863 129.236 94.9214C130.342 93.4979 131.924 92.5519 133.083 91.1532C133.578 90.5549 134.672 89.9194 133.4 89.9296" stroke="#00ADB5" stroke-linecap="round" stroke-linejoin="round"/>
<path d="M120.901 107.699C124.932 105.22 127.514 100.609 130.447 96.9555C131.781 95.2932 133.069 93.596 134.419 91.9472C135.035 91.1955 136.109 90.7259 134.731 91.4956" stroke="#00ADB5" stroke-linecap="round" stroke-linejoin="round"/>
<path d="M122.489 110.285C125.005 107.832 127.036 105.185 129.094 102.347C130.345 100.622 131.427 98.6825 132.897 97.1289C133.74 96.2376 134.389 95.1938 135.155 94.2489C135.463 93.8682 135.676 93.4246 135.993 93.0471C136.707 92.1968 136.209 92.9661 135.712 93.4274" stroke="#00ADB5" stroke-linecap="round" stroke-linejoin="round"/>
<path d="M123.081 111.36C124.333 110.134 126.167 108.953 127.002 107.363C127.305 106.785 128.055 105.391 128.581 105.037C129.277 104.57 129.608 103.577 130.115 102.952C130.642 102.301 131.158 101.666 131.73 101.047C132.267 100.466 132.438 99.4472 133.102 98.9476C133.842 98.3911 134.202 97.5296 134.792 96.8652C135.303 96.2902 136.276 95.6943 136.909 95.255C137.26 95.0116 137.506 94.6799 137.904 94.499C138.711 94.1325 138.187 94.3201 137.448 94.2925" stroke="#00ADB5" stroke-linecap="round" stroke-linejoin="round"/>
<path d="M136.166 86.9164C137.201 87.1894 138.478 87.3769 139.422 87.9412C140.031 88.3054 140.561 88.6711 139.452 88.0079" stroke="#00ADB5" stroke-linecap="round" stroke-linejoin="round"/>
<path d="M137.241 85.1878C138.718 85.5737 139.762 86.0064 140.967 86.7917C141.754 87.3052 141.628 87.163 140.808 86.6688" stroke="#00ADB5" stroke-linecap="round" stroke-linejoin="round"/>
<path d="M139.033 83.4439C140.301 84.1573 141.532 84.968 142.844 85.5891C143.615 85.9544 143.21 85.9289 142.615 85.6414" stroke="#00ADB5" stroke-linecap="round" stroke-linejoin="round"/>
<path d="M140.054 82.05C141.387 82.6573 142.617 83.2621 143.845 84.0261C144.405 84.3744 143.897 84.397 143.472 84.1151" stroke="#00ADB5" stroke-linecap="round" stroke-linejoin="round"/>
<path d="M136.82 86.3092C137.828 85.1112 138.839 83.9759 139.756 82.7479C140.017 82.399 141.604 80.4565 140.918 81.4507" stroke="#00ADB5" stroke-linecap="round" stroke-linejoin="round"/>
<path d="M137.879 88.4124C139.19 87.2533 141.079 85.7078 141.503 83.976C141.627 83.4663 141.897 82.957 142.293 82.6064C142.695 82.2508 143.114 82.0902 142.515 82.6895" stroke="#00ADB5" stroke-linecap="round" stroke-linejoin="round"/>
<path d="M136.827 88.3731C138.225 86.8673 139.42 85.8552 140.21 84.0002C140.415 83.5185 140.65 83.1192 140.987 82.7401C141.344 82.3383 141.856 81.9621 141.167 82.6813" stroke="#00ADB5" stroke-linecap="round" stroke-linejoin="round"/>
<path d="M142.022 89.1148C142.666 89.5229 143.311 89.9012 143.98 90.2408C144.257 90.3811 143.915 90.1096 143.797 90.0655" stroke="#00ADB5" stroke-linecap="round" stroke-linejoin="round"/>
<path d="M143.276 87.098C143.32 87.135 145.851 89.3036 145.402 88.82" stroke="#00ADB5" stroke-linecap="round" stroke-linejoin="round"/>
<path d="M144.78 86.3118C145.338 86.849 147.048 88.42 146.446 87.9324" stroke="#00ADB5" stroke-linecap="round" stroke-linejoin="round"/>
<path d="M141.274 89.9712C142.199 89.1096 144.228 87.4026 144.725 86.0782C144.921 85.5563 145.819 84.8857 144.975 85.6032" stroke="#00ADB5" stroke-linecap="round" stroke-linejoin="round"/>
<path d="M141.391 90.2282C141.478 90.2986 143.248 92.2046 143.625 91.2804C143.818 90.8087 144.069 90.1942 144.541 89.9342C145.37 89.478 145.523 88.0412 146.372 87.6558C147.335 87.2186 147.245 86.4854 146.348 86.2254C145.996 86.1232 146.274 85.429 145.908 85.4836C145.573 85.5335 145.396 85.4099 145.022 85.4785" stroke="#00ADB5" stroke-linecap="round" stroke-linejoin="round"/>
<path d="M136.049 86.6594C136.656 87.8193 136.771 88.2398 137.75 88.7235C138.014 88.854 138.359 88.673 138.56 88.7748C138.957 88.9763 139.741 88.9805 140.038 88.6148C140.633 87.8793 140.853 87.4047 141.766 86.9573C142.341 86.6751 142.805 86.0092 143.071 85.4572C143.364 84.8505 143.891 84.3934 144.2 83.7844C144.332 83.525 143.269 82.8571 143.26 82.4085C143.257 82.2813 141.995 82.2775 141.785 82.1709C141.531 82.0418 141.414 81.8598 141.292 81.591C141.114 81.1984 140.798 81.6858 140.319 81.7231" stroke="#00ADB5" stroke-linecap="round" stroke-linejoin="round"/>
<path d="M115.031 101.372C116.465 101.917 117.715 102.62 119.006 103.397C120.126 104.073 121.392 104.432 122.506 105.087C123.298 105.552 124.121 106.616 124.706 107.314C124.901 107.547 125.047 107.765 125.185 108.027C125.502 108.629 125.172 107.174 125.138 107.015" stroke="#00ADB5" stroke-linecap="round" stroke-linejoin="round"/>
<path d="M128.874 90.4344C129.272 90.8518 130.882 93.1561 130.564 91.4241" stroke="#00ADB5" stroke-linecap="round" stroke-linejoin="round"/>
<path d="M132.188 250.39C132.358 251.267 132.792 251.837 133.128 252.635C133.357 253.179 133.785 253.6 134.023 254.133C134.281 254.709 134.666 255.386 135.025 255.899C135.333 256.338 135.534 256.755 135.923 257.143C136.609 257.829 137.128 258.647 137.817 259.323C138.819 260.306 140.516 261.589 141.976 261.508C142.445 261.482 142.964 261.627 143.424 261.558C143.818 261.498 144.297 261.478 144.693 261.546C145.342 261.658 146.047 261.546 146.669 261.68C147.004 261.752 147.369 261.647 147.709 261.709C148.149 261.791 148.665 261.811 149.114 261.811C150.583 261.811 152.048 261.803 153.513 261.617C154.307 261.516 155.093 261.779 155.879 261.639C156.616 261.508 157.599 261.643 158.292 261.34C159.145 260.967 159.993 260.38 160.652 259.722C160.982 259.392 161.232 258.997 161.456 258.589C161.75 258.053 161.913 257.474 162.208 256.939C163.238 255.073 163.825 252.996 164.658 251.051C164.855 250.593 165.178 250.222 165.413 249.798C165.472 249.691 165.499 249.554 165.596 249.451C165.96 249.067 165.264 249.026 164.944 248.88" stroke="#00ADB5" stroke-linecap="round" stroke-linejoin="round"/>
<path d="M132.025 250.471C132.754 249.517 133.372 248.817 134.431 248.278C135.318 247.826 136.238 247.29 137.04 246.7C138.271 245.795 139.966 245.391 141.466 245.118C143.098 244.822 144.704 244.475 146.365 244.475C146.879 244.475 147.388 244.63 147.902 244.638C148.517 244.648 149.134 244.667 149.746 244.72C150.686 244.8 151.651 244.781 152.593 244.801C153.906 244.83 155.164 245.51 156.477 245.615C157.258 245.677 158.169 245.794 158.929 246.007C159.214 246.086 159.538 246.141 159.804 246.27C160.134 246.43 160.366 246.702 160.67 246.891C161.65 247.5 162.745 247.787 163.804 248.25C164.128 248.392 164.686 248.636 165.046 248.636C165.54 248.636 165.515 249.549 165.515 248.636" stroke="#00ADB5" stroke-linecap="round" stroke-linejoin="round"/>
<path d="M165.433 249.207C164.828 250.018 164.397 250.326 163.539 250.8C162.865 251.172 162.118 251.435 161.363 251.573C160.658 251.701 159.888 251.803 159.174 251.86C158.579 251.908 157.973 251.839 157.365 251.908C155.992 252.065 154.606 252.419 153.282 252.805C151.391 253.358 149.565 253.416 147.612 253.522C145.479 253.637 143.342 253.474 141.253 253.041C140.548 252.895 139.803 253.026 139.086 252.998C138.296 252.967 137.522 252.75 136.779 252.493C136.466 252.385 136.178 252.218 135.85 252.144C135.466 252.056 135.075 252.091 134.694 251.999C134.163 251.87 133.543 251.638 133.094 251.328C132.899 251.193 132.606 251.081 132.453 250.877C132.408 250.817 132.351 250.685 132.351 250.614C132.351 250.445 132.212 250.488 132.432 250.634" stroke="#00ADB5" stroke-linecap="round" stroke-linejoin="round"/>
<path d="M147.893 257.487C148.389 257.432 149.045 257.442 148.84 256.803C148.774 256.598 148.608 256.576 148.432 256.518C147.907 256.343 146.968 256.681 146.771 257.229C146.417 258.212 147.087 259.274 148.14 258.933C148.426 258.841 148.934 258.638 149.116 258.378C149.335 258.066 149.007 258.158 148.79 257.855" stroke="#00ADB5" stroke-linecap="round" stroke-linejoin="round"/>
<path d="M146.383 256.427C147.175 256.109 147.58 255.978 148.38 255.978C148.703 255.978 148.864 255.955 149.148 256.141C149.618 256.448 149.78 257.032 149.731 257.546C149.689 257.981 149.546 258.576 149.393 258.988C149.279 259.294 148.998 259.347 148.711 259.405C148.448 259.457 147.875 259.31 147.668 259.425C147.449 259.547 146.778 259.588 146.608 259.362C146.452 259.153 146.284 259.064 146.17 258.811C146.062 258.57 146.013 258.339 145.926 258.099C145.806 257.77 145.59 256.87 146.037 256.672C146.298 256.555 146.41 256.486 146.71 256.486C146.795 256.486 146.868 256.549 146.955 256.549C147.08 256.549 146.713 256.468 146.587 256.468" stroke="#00ADB5" stroke-linecap="round" stroke-linejoin="round"/>
<path d="M147.811 253.164C148.386 252.42 148.912 251.652 149.506 250.929C149.826 250.541 150.223 250.206 150.567 249.834C151.553 248.77 152.557 247.605 153.309 246.36C154.049 245.135 155.06 243.8 156.158 242.879C156.737 242.393 157.255 241.856 157.76 241.295C158.249 240.752 158.475 239.991 158.938 239.417C159.297 238.972 161.647 235.944 162.057 237.785C162.217 238.508 161.512 239.014 161.069 239.457C160.566 239.96 160.06 240.599 159.632 241.171C159.219 241.722 158.716 242.206 158.315 242.762C157.769 243.518 156.776 244.058 156.377 244.914C156.049 245.621 155.504 246.188 155.095 246.843C154.528 247.75 153.863 248.508 153.196 249.338C152.666 249.996 151.837 250.537 151.462 251.287C151.149 251.914 150.593 252.178 150.086 252.583C149.866 252.76 149.598 252.858 149.402 253.102C149.337 253.184 149.22 253.278 149.159 253.186C149.125 253.134 148.992 253.251 149.017 253.309C149.104 253.511 148.892 252.82 148.872 252.756" stroke="#00ADB5" stroke-linecap="round" stroke-linejoin="round"/>
<path d="M147.485 253.367C147.641 253.447 148.627 254.195 148.627 253.592C148.627 253.409 148.862 253.105 148.944 252.919C149.007 252.778 148.443 252.913 148.36 253.021C148.25 253.162 148.038 253.276 148.382 253.286C148.647 253.293 148.854 253.18 149.055 253.023C149.113 252.978 149.891 253.101 149.198 253.082C148.829 253.072 148.471 253.082 148.117 253.082C147.811 253.082 148.431 253 148.52 253C148.592 253 148.003 253.35 147.902 253.236C147.877 253.208 147.834 253.132 147.933 253.082" stroke="#00ADB5" stroke-linecap="round" stroke-linejoin="round"/>
<path d="M134.513 250.349C134.559 250.373 136.017 251.137 136.022 251.042C136.029 250.928 135.948 250.829 136.004 250.716C136.251 250.223 136.57 250.459 136.994 250.65C137.326 250.799 136.823 249.149 137.822 249.846C138.338 250.206 138.475 250.148 138.39 249.544C138.326 249.087 138.484 249.086 138.878 249.134C139.145 249.167 139.337 249.226 139.49 248.971C139.675 248.662 139.884 248.487 140.262 248.62C140.576 248.73 140.855 249.041 141.071 248.645C141.166 248.47 141.086 247.949 141.386 248.049C141.574 248.111 141.822 248.357 142.037 248.28C142.199 248.221 142.324 247.718 142.508 247.797C142.7 247.88 142.896 248.245 143.138 248.157C143.255 248.115 143.472 247.733 143.242 247.779" stroke="#00ADB5" stroke-linecap="round" stroke-linejoin="round"/>
<path d="M140.265 249.615C140.77 250.026 142.664 252.224 143.22 250.582C143.319 250.288 143.335 249.706 143.614 250.188C143.844 250.585 144.19 250.861 144.566 250.485C144.815 250.236 144.926 249.813 145.282 249.683C145.609 249.563 145.849 250.177 146.121 249.819C146.34 249.529 146.234 249.032 145.912 248.858C145.807 248.801 145.777 248.997 145.731 249.044" stroke="#00ADB5" stroke-linecap="round" stroke-linejoin="round"/>
<path d="M144.629 247.086C145.417 246.95 146.409 246.675 147.009 247.38C147.287 247.707 147.26 248.125 147.077 248.495C146.943 248.766 146.582 248.901 146.352 248.636C146.163 248.418 146.552 248.059 146.692 247.926C147.169 247.471 147.877 248.2 148.026 248.695C148.151 249.108 147.022 250.065 147.158 249.655" stroke="#00ADB5" stroke-linecap="round" stroke-linejoin="round"/>
<path d="M157.887 248.472C158.121 248.392 159.626 247.907 159.337 248.708C159.189 249.119 158.621 249.339 158.249 249.474C158.073 249.538 157.618 249.527 157.914 249.27C158.17 249.048 158.53 248.944 158.866 248.971C160.175 249.077 158.344 250.581 157.968 250.789C157.238 251.191 156.244 251.615 155.48 251.124" stroke="#00ADB5" stroke-linecap="round" stroke-linejoin="round"/>
<path d="M149.851 246.066C150.161 246.571 150.535 247.078 150.8 247.609C150.891 247.792 150.496 247.324 150.404 247.142C150.379 247.094 150.209 246.558 150.193 246.562C149.994 246.606 149.947 247.516 149.894 247.684C149.64 248.478 149.012 248.174 148.396 248.114C147.65 248.043 147.317 248.778 146.904 249.248C146.575 249.623 146.445 249.738 146.669 250.186C146.85 250.548 146.925 250.899 146.669 251.226C146.469 251.481 146.219 251.643 145.978 251.854C145.757 252.047 146.073 252.015 146.032 251.899C145.919 251.582 145.221 251.648 144.992 251.663C144.143 251.719 143.278 251.506 142.445 251.559C142.002 251.587 141.585 251.834 141.146 251.899C140.7 251.965 141.29 252.352 141.456 252.463C141.744 252.655 140.894 252.056 140.582 251.908C140.058 251.66 139.575 251.468 139.304 250.92C139.032 250.37 138.793 249.995 138.334 249.592C138.175 249.453 138.157 249.241 138.234 249.053C138.413 248.616 138.81 248.26 139.204 248.024" stroke="#00ADB5" stroke-linecap="round" stroke-linejoin="round"/>
<path d="M149.769 247.697C148.747 246.984 147.903 246.676 146.701 246.514C146.278 246.458 145.827 246.165 145.552 245.841C145.307 245.554 145.446 245.63 145.157 246.02C144.763 246.553 144.471 246.075 143.968 246.215C143.196 246.43 142.534 247.148 141.751 247.28C141.537 247.317 141.589 246.958 141.321 247.113C140.87 247.373 140.524 247.619 139.997 247.702C139.678 247.752 139.074 247.962 139.122 248.35" stroke="#00ADB5" stroke-linecap="round" stroke-linejoin="round"/>
<path d="M156.704 247.697C157.69 247.792 158.69 247.78 159.672 247.885C160.018 247.923 160.195 248.062 160.438 248.289C160.658 248.493 161.001 248.974 161.315 249C161.77 249.038 162.004 248.85 162.428 248.717C162.683 248.637 163.498 248.717 163.23 248.717" stroke="#00ADB5" stroke-linecap="round" stroke-linejoin="round"/>
<path d="M155.97 248.799C154.909 249.498 154.342 250.558 153.207 251.194C152.982 251.32 152.294 251.564 152.346 251.978C152.383 252.278 154.681 251.34 155.031 251.165" stroke="#00ADB5" stroke-linecap="round" stroke-linejoin="round"/>
<path d="M159.926 249.778C160.503 250.207 161 250.821 161.721 250.603C161.916 250.544 162.324 250.521 162.455 250.39" stroke="#00ADB5" stroke-linecap="round" stroke-linejoin="round"/>
<path d="M302.482 231.995C299.503 232.567 297.338 233.427 295.45 235.854C294.253 237.392 294.515 239.814 295.3 241.445C296.591 244.132 299.767 245.649 302.632 245.781C305.97 245.935 310.61 244.954 311.294 240.973C311.661 238.839 309.622 236.821 308.668 235.071C307.891 233.648 306.722 231.729 305.087 231.126C304.42 230.881 302.871 230.966 302.386 231.63C302.169 231.927 301.89 232.24 301.732 232.574C301.604 232.844 301.741 231.886 301.71 231.609" stroke="#00ADB5" stroke-linecap="round" stroke-linejoin="round"/>
<path d="M303.736 239.327C302.933 239.741 301.628 240.014 302.332 240.919C302.493 241.126 302.721 241.114 302.916 240.919C303.083 240.753 303.923 239.878 303.302 239.671C302.036 239.249 302.499 241.775 303.404 240.657C303.89 240.056 303.21 239.465 302.6 239.831C301.874 240.267 302.448 241.028 303.018 240.367C303.448 239.869 303.105 239.487 302.638 239.955C302.219 240.373 302.644 241.04 303.056 240.475C303.478 239.894 302.997 239.403 302.488 239.912C301.898 240.501 302.536 240.439 302.954 240.051C303.375 239.66 302.628 239.718 302.386 240.024C301.823 240.736 302.705 240.635 302.847 240.024C303.055 239.127 302.13 241.189 302.579 239.617" stroke="#00ADB5" stroke-linecap="round" stroke-linejoin="round"/>
<path d="M300.456 236.336C301.313 237.467 302.191 238.54 302.911 239.67C303.11 239.984 302.951 240.298 303.061 240.292C303.467 240.27 303.883 240.196 304.315 240.196C305.305 240.196 306.085 239.713 307.038 239.713C308.193 239.713 309.89 239.413 307.982 238.459" stroke="#00ADB5" stroke-linecap="round" stroke-linejoin="round"/>
<path d="M299.491 231.898C299.311 230.986 298.43 228.775 300.07 229.009C300.658 229.093 301.053 229.702 301.399 230.086C302.3 231.087 302.204 232.295 300.745 232.381C300.363 232.403 299.826 233.161 299.395 232.622C298.907 232.012 299.405 232.053 299.491 231.319C299.548 230.839 299.234 230.879 299.1 230.408C298.997 230.047 299.211 229.651 299.298 229.39" stroke="#00ADB5" stroke-linecap="round" stroke-linejoin="round"/>
<path d="M300.07 230.837C300.062 231.067 299.706 233.144 300.461 232.804C300.714 232.69 300.933 232.525 301.035 232.263C301.134 232.009 301.029 231.857 300.917 231.609C300.629 230.969 299.795 229.975 300.049 231.416C300.209 232.325 301.224 232.112 301.303 231.244C301.363 230.581 300.527 229.693 299.995 230.451C299.619 230.987 300.289 232.168 300.681 231.341C300.88 230.921 300.404 229.852 299.899 230.376C299.38 230.913 300.159 232.046 300.67 231.587C301.176 231.134 300.832 229.752 300.285 230.279C299.783 230.762 300.535 231.722 300.917 230.987C301.343 230.167 300.405 229.549 300.113 230.408C299.853 231.175 300.665 232 300.853 230.955C300.996 230.159 299.534 229.736 299.534 230.687C299.534 231.563 300.317 231.473 300.317 230.676C300.317 229.846 299.48 230.032 299.829 230.73C300.178 231.427 300.645 230.189 300.252 229.797C299.794 229.339 299.188 230.047 299.727 230.488C300.095 230.789 300.597 229.541 299.979 229.309C299.445 229.109 299.74 230.199 299.925 229.952C300.212 229.57 299.773 229.314 300.076 229.39C300.342 229.456 300.991 229.599 301.174 229.835C301.319 230.02 301.903 231.051 301.903 231.319C301.903 232.139 300.65 232.581 299.931 232.375C299.415 232.228 299.262 232.592 299.443 232.472C299.882 232.179 299.974 231.416 299.974 231.705" stroke="#00ADB5" stroke-linecap="round" stroke-linejoin="round"/>
<path d="M299.974 245.695C299.477 246.749 299.036 247.808 298.451 248.804C298.32 249.029 298.073 249.486 298.044 249.748C297.966 250.452 298.673 248.069 298.816 247.722" stroke="#00ADB5" stroke-linecap="round" stroke-linejoin="round"/>
<path d="M309.719 243.669C310.941 245.212 312.288 246.312 313.24 248.006C313.334 248.172 313.497 248.305 313.626 248.434C314.06 248.868 312.822 247.509 312.42 247.046" stroke="#00ADB5" stroke-linecap="round" stroke-linejoin="round"/>
<path d="M228.785 153.709C229.55 156.593 232.5 167.313 233.206 171.229C235.149 182.014 232.1 167.298 232.092 172.061" stroke="#00ADB5" stroke-width="2" stroke-linecap="round" stroke-linejoin="round"/>
<path d="M223.608 158.371C223.347 153.983 222.363 147.893 228.516 148.52C231.41 148.815 234.599 150.533 236.403 152.832C239.192 156.384 237.721 161.89 234.708 164.718C233.104 166.222 231.548 166.976 229.449 167.545C225.894 168.508 228.7 163.57 229.272 162.217" stroke="#00ADB5" stroke-width="2" stroke-linecap="round" stroke-linejoin="round"/>
<path d="M239.611 163.734C245.725 163.407 251.352 162.203 253.539 168.834C254.81 172.687 256.358 177.368 255.298 181.429C254.341 185.098 252.279 187.392 248.509 185.829C243.121 183.595 243.128 179.39 246.061 175.197C247.14 173.653 251.275 170.561 251.278 168.756" stroke="#00ADB5" stroke-width="2" stroke-linecap="round" stroke-linejoin="round"/>
<path d="M250.63 156.579C250.422 158.188 250.418 169.567 247.339 169.676C246.761 169.697 246.276 169.997 245.772 170.248C243.833 171.214 245.012 170.345 245.736 169.34C247.376 167.064 250.696 167.905 252.359 164.884C254.165 161.604 254.996 159.991 252.408 157.453C250.594 155.675 251.391 152.65 249.963 156.912" stroke="#00ADB5" stroke-width="2" stroke-linecap="round" stroke-linejoin="round"/>
<path d="M259.653 146.253C262.016 151.572 264.176 158.5 267.966 163.13C268.968 164.354 269.53 163.289 269.515 162.336C269.495 161.131 269.156 159.916 268.807 158.776" stroke="#00ADB5" stroke-width="2" stroke-linecap="round" stroke-linejoin="round"/>
<path d="M252.793 160.085C256.542 158.61 265.747 157.117 267.316 152.436" stroke="#00ADB5" stroke-width="2" stroke-linecap="round" stroke-linejoin="round"/>
<path d="M264.323 146.427C280.572 174.849 264.741 154.872 273 149.674C278.014 146.519 278.432 161.39 279.821 154.958" stroke="#00ADB5" stroke-width="2" stroke-linecap="round" stroke-linejoin="round"/>
<path d="M278.835 145.449C279.425 147.212 281.405 158.848 285.527 156.19C287.37 155.001 289.517 152.735 289.872 150.507C290.254 148.117 288.76 142.044 285.381 142.698C283.839 142.996 281.26 143.069 280.254 144.534C279.282 145.95 278.668 149.268 279.835 145.784" stroke="#00ADB5" stroke-width="2" stroke-linecap="round" stroke-linejoin="round"/>
<path d="M290.348 142.632C294.956 139.673 300.372 138.702 301.073 145.669C301.161 146.544 301.178 147.645 301.579 148.45C302.044 149.384 301.089 146.168 300.184 145.649" stroke="#00ADB5" stroke-width="2" stroke-linecap="round" stroke-linejoin="round"/>
<path d="M290.01 145.3C290.219 148.942 289.698 153.876 291.4 157.292C291.458 157.409 291.862 158.3 291.658 157.812C291.255 156.845 291.088 156.189 290.328 155.141" stroke="#00ADB5" stroke-width="2" stroke-linecap="round" stroke-linejoin="round"/>
<path d="M173.384 178.27C172.745 184.19 173.858 202.416 163.804 201.282C161.708 201.045 159.804 200.695 158.808 198.72C157.765 196.652 156.903 194.853 156.799 192.504C156.671 189.618 157.82 188.257 160.153 186.955C160.971 186.498 159.213 188.347 159.057 188.526C158.032 189.704 161.511 188.268 162.84 187.973" stroke="#00ADB5" stroke-width="2" stroke-linecap="round" stroke-linejoin="round"/>
<path d="M186.292 181.115C181.206 181.59 174.028 182.555 173.208 188.917C172.763 192.367 177.893 192.787 180.12 193.962C183.946 195.982 186.849 202.567 182.558 205.466C179.573 207.481 177.316 206.41 174.412 206.611C171.463 206.816 173.517 205.729 175.265 205.431" stroke="#00ADB5" stroke-width="2" stroke-linecap="round" stroke-linejoin="round"/>
<path d="M213.848 24.4838C213.441 28.568 213.193 32.694 212.689 36.7685C212.641 37.1605 212.255 38.708 212.711 37.4569C213.045 36.542 212.937 35.5887 213.473 34.7212C214.211 33.5263 217.546 28.9749 219.113 29.4353C222.252 30.358 219.083 36.1813 218.184 37.8499C217.874 38.4254 217.03 39.6737 217.467 40.3191C218.05 41.1795 219.129 37.9999 219.174 37.9026" stroke="#00ADB5" stroke-width="2" stroke-linecap="round" stroke-linejoin="round"/>
<path d="M226.248 27.1657C225.876 28.9904 222.75 37.9969 225.762 39.4888C226.611 39.9098 228.491 39.1151 229.076 38.43C229.684 37.7166 229.366 36.6242 229.3 35.7962" stroke="#00ADB5" stroke-width="2" stroke-linecap="round" stroke-linejoin="round"/>
<path d="M220.052 27.3625C223.356 28.345 226.754 28.9991 230.036 30.0128C230.811 30.2521 231.102 30.3605 231.519 31.0517C232.168 32.1269 230.444 31.1447 230.147 30.819" stroke="#00ADB5" stroke-width="2" stroke-linecap="round" stroke-linejoin="round"/>
<path d="M234.993 33.7464C234.235 36.0358 233.522 38.3539 232.657 40.6068C232.484 41.0547 232.459 41.2185 232.366 40.8764C232.276 40.5469 232.19 40.3527 232.336 40.0046C233.114 38.1549 234.929 35.4964 236.641 34.4633C238.49 33.3476 237.481 37.0952 237.232 37.8538C236.954 38.7058 236.202 41.041 237.056 38.7814C237.565 37.4367 238.732 34.0946 240.699 34.581C241.89 34.8756 241.615 36.4863 241.405 37.3381C241.016 38.9087 240.63 40.4688 240.241 42.0447C239.671 44.3475 239.979 43.1039 240.395 41.4211" stroke="#00ADB5" stroke-width="2" stroke-linecap="round" stroke-linejoin="round"/>
<path d="M249.679 28.7338C248.493 33.0026 247.036 37.2593 246.014 41.5726C245.894 42.0784 245.632 43.9515 246.438 44.1746C247.203 44.3865 250.226 42.5702 249.487 41.9406" stroke="#00ADB5" stroke-width="2" stroke-linecap="round" stroke-linejoin="round"/>
<path d="M44.2092 202.862C41.4025 208.194 38.6048 213.531 35.7906 218.859C34.9885 220.378 33.4052 225.024 33.2092 223.318C32.9434 221.004 34.357 217.765 34.9568 215.597C35.8033 212.538 37.5269 206.425 41.8218 206.448C45.0639 206.465 48.7087 211.219 49.2114 214.185C49.5664 216.28 50.5987 213.915 51.9997 213.283" stroke="#00ADB5" stroke-width="2" stroke-linecap="round" stroke-linejoin="round"/>
<path d="M52.909 219.944C54.7951 224.331 57.5754 231.746 63.3008 227.667C65.9315 225.792 64.6242 222.584 62.0272 221.565C55.6626 219.068 47.6429 226.041 46.0557 231.772C44.4688 237.502 50.7333 239.259 55.0427 239.825C57.4272 240.138 56.8924 238.1 58.9442 237.39" stroke="#00ADB5" stroke-width="2" stroke-linecap="round" stroke-linejoin="round"/>
<path d="M68.7597 235.111C63.8156 233.046 57.2656 231.206 54.4793 237.524C53.1364 240.569 59.1467 240.927 60.9293 240.843C64.3342 240.683 71.9158 232.801 69.3615 235.058C67.1199 237.038 64.8514 239.376 63.9297 242.301C63.3344 244.19 64.0181 248.364 66.2082 245.481" stroke="#00ADB5" stroke-width="2" stroke-linecap="round" stroke-linejoin="round"/>
<path d="M87.9862 239.064C80.8103 239.752 72.3057 240.112 69.7598 248.175C68.5083 252.138 71.4446 254.894 74.9826 256.057C77.455 256.87 79.9754 255.106 81.4753 253.315" stroke="#00ADB5" stroke-width="2" stroke-linecap="round" stroke-linejoin="round"/>
<path d="M94.5037 240.157C94.1103 240.636 76.4337 259.902 84.8596 260.051C87.1925 260.092 89.5868 258.735 91.1936 257.208" stroke="#00ADB5" stroke-width="2" stroke-linecap="round" stroke-linejoin="round"/>
<path d="M79.5314 243.663C82.9253 246.003 86.2715 248.481 89.9942 250.29C90.961 250.76 92.5723 250.985 93.2379 251.959C93.6117 252.506 93.0239 251.206 92.9585 251.017" stroke="#00ADB5" stroke-width="2" stroke-linecap="round" stroke-linejoin="round"/>
<path d="M41.6746 89.4101C44.5228 94.281 53.5676 108.491 49.8957 104.207C47.5486 101.469 45.7658 97.8345 44.2777 94.595C42.7161 91.1956 41.2498 85.1297 47.2006 85.4376C52.3081 85.7018 54.3471 90.9176 55.2455 95.1928C55.6419 97.079 55.743 98.544 56.589 100.26C57.4541 102.014 57.5021 95.2556 57.8309 93.5021" stroke="#00ADB5" stroke-width="2" stroke-linecap="round" stroke-linejoin="round"/>
<path d="M60.076 79.5041C60.2348 80.241 62.6968 97.0847 66.2702 93.8452C67.7748 92.4811 68.1055 89.1192 68.2986 87.2773C68.9024 81.5204 66.4705 80.8095 62.4291 79.5912C60.5011 79.01 60.106 79.0363 59.5765 81.021C58.4893 85.0967 60.2031 83.9515 62.3991 81.6852" stroke="#00ADB5" stroke-width="2" stroke-linecap="round" stroke-linejoin="round"/>
<path d="M75.6138 74.7526C73.6283 78.0985 71.0966 82.0344 72.4933 86.1328C73.0726 87.8328 74.4204 87.3837 75.3642 86.4266C76.8537 84.9163 77.6302 82.434 77.5474 80.36C77.3886 76.384 74.898 72.9817 72.2848 70.1568C71.9224 69.7651 68.622 67.0443 69.2683 69.3804C70.4292 73.5763 73.6601 77.6123 75.9116 81.2591C79.6223 87.2697 80.7603 84.9355 82.4273 79.2935" stroke="#00ADB5" stroke-width="2" stroke-linecap="round" stroke-linejoin="round"/>
<path d="M82.7801 75.7928C84.0122 76.9418 93.7353 83.887 94.0371 77.7266C94.0645 77.1677 93.352 76.9932 93.1172 76.5169C92.5119 75.2896 91.5093 74.4802 90.9636 73.8364" stroke="#00ADB5" stroke-width="2" stroke-linecap="round" stroke-linejoin="round"/>
<path d="M83.5911 79.9671C79.7412 74.9116 74.3633 69.6554 79.8762 64.6574C82.1991 62.5515 87.0183 64.2168 86.8923 67.7353C86.8336 69.3742 86.4879 73.4265 84.1344 73.8544C82.8898 74.0806 82.3164 73.2657 83.4674 72.1272" stroke="#00ADB5" stroke-width="2" stroke-linecap="round" stroke-linejoin="round"/>
<path d="M92.3796 58.9998C94.8684 60.5836 112.605 71.065 103.315 75.6464C101.867 76.3604 100.593 74.6963 99.8233 73.6257C98.0881 71.2121 103.143 67.7881 103.354 65.2315" stroke="#00ADB5" stroke-width="2" stroke-linecap="round" stroke-linejoin="round"/>
<path d="M106.937 50.5735C105.489 51.7566 97.1787 59.1053 103.713 60.5262C107.323 61.311 110.734 57.7143 113.477 55.919C117.897 53.0269 118.829 58.5921 117.615 61.7332C116.871 63.6569 110.663 69.9521 112.362 64.9474" stroke="#00ADB5" stroke-width="2" stroke-linecap="round" stroke-linejoin="round"/>
<path d="M155.983 324.094C150.454 326.876 143.21 331.949 149.187 338.681C152.054 341.91 157.346 340.587 161.121 340.214C162.182 340.109 165.109 341.129 164.312 340.421C162.589 338.889 161.348 338.988 160.831 336.402" stroke="#00ADB5" stroke-width="2" stroke-linecap="round" stroke-linejoin="round"/>
<path d="M172.393 322.23C172.393 326.305 172.355 329.222 176.537 330.807C178.342 331.492 179.476 332.12 179.955 334.143C180.497 336.43 178.901 339.743 177.013 341.022C174.678 342.604 171.746 343.155 169.119 342.079C166.87 341.157 169.356 340.067 170.528 339.012" stroke="#00ADB5" stroke-width="2" stroke-linecap="round" stroke-linejoin="round"/>
<path d="M190.667 317.754C189.934 320.596 186.627 328.197 189.569 331.139C190.756 332.326 193.056 331.667 194.521 332.009C195.978 332.35 197.228 333.465 198.126 334.62C199.548 336.448 198.194 339.218 196.551 340.504C194.002 342.499 190.361 341.623 187.393 341.623C185.773 341.623 186.88 341.508 187.683 340.504" stroke="#00ADB5" stroke-width="2" stroke-linecap="round" stroke-linejoin="round"/>
<path d="M184.238 282.385C187.111 281.288 192.44 279.544 195.219 277.578C198.152 275.503 195.081 274.906 193.52 275.402C190.875 276.242 189.278 279.012 188.382 281.452C186.022 287.877 193.529 295.138 199.839 294.402C205.672 293.722 206.485 290.866 207.361 286.487" stroke="#00ADB5" stroke-width="2" stroke-linecap="round" stroke-linejoin="round"/>
<path d="M211.09 279.028C210.437 280.092 204.23 292.872 202.512 286.86" stroke="#00ADB5" stroke-width="2" stroke-linecap="round" stroke-linejoin="round"/>
<path d="M199.529 279.401C202.147 282.902 208.474 295.418 214.82 295.065C215.74 295.014 214.519 291.471 214.447 290.963" stroke="#00ADB5" stroke-width="2" stroke-linecap="round" stroke-linejoin="round"/>
<path d="M216.684 279.401C218.131 287.876 221.029 313.489 219.378 305.052C218.527 300.701 210.754 277.16 217.596 278.137C220.563 278.561 228.138 282.891 226.153 286.86C225.037 289.092 218.12 289.872 221.16 288.352" stroke="#00ADB5" stroke-width="2" stroke-linecap="round" stroke-linejoin="round"/>
<path d="M230.857 285.368C231.778 290.163 232.665 294.955 233.467 299.768C233.605 300.593 233.42 299.913 233.177 299.458C231.652 296.597 229.563 291.499 229.634 288.29C229.702 285.249 233.885 283.176 236.078 285.368" stroke="#00ADB5" stroke-width="2" stroke-linecap="round" stroke-linejoin="round"/>
<path d="M242.791 290.963C242.694 294.473 245.241 306.76 251.286 303.187C252.152 302.675 254.289 301.425 254.353 300.287C254.386 299.679 253.282 299.541 252.861 299.541C251.753 299.541 251.476 298.166 250.996 297.303" stroke="#00ADB5" stroke-width="2" stroke-linecap="round" stroke-linejoin="round"/>
<path d="M240.926 292.082C244.193 288.702 247.867 284.046 250.768 290.072C251.617 291.836 251.322 293.961 250.623 295.728C249.495 298.583 245.453 299.708 246.521 295.438" stroke="#00ADB5" stroke-width="2" stroke-linecap="round" stroke-linejoin="round"/>
<path d="M261.066 285.368C263.622 289.453 273.96 300.464 267.178 305.487C265.008 307.094 263.592 307.087 261.149 307C257.699 306.876 259.522 306.002 260.693 303.27" stroke="#00ADB5" stroke-width="2" stroke-linecap="round" stroke-linejoin="round"/>
<path d="M276.73 283.877C275.958 284.811 265.985 294.452 272.047 295.48C274.281 295.858 276.335 294.505 278.387 295.873C282.09 298.342 281.213 301.688 277.807 303.788C276.105 304.838 274.205 305.388 272.42 306.254C271.411 306.743 272.486 305.326 272.627 304.762" stroke="#00ADB5" stroke-width="2" stroke-linecap="round" stroke-linejoin="round"/>
<path d="M268.152 279.774C267.286 280.41 257.962 285.585 259.284 288.725C260.952 292.687 261.503 287.81 261.812 286.114" stroke="#00ADB5" stroke-width="2" stroke-linecap="round" stroke-linejoin="round"/>
<path d="M38.9289 157.776C40.59 153.859 39.9097 150.446 39.9097 146.387C39.9097 145.598 39.7664 143.193 40.5962 142.762C41.9048 142.083 43.1277 141.63 44.6716 141.63C45.6981 141.63 46.7295 141.66 47.7555 141.63C48.7817 141.601 49.7757 141.183 50.7903 141.059C52.6781 140.828 54.6416 141.15 56.5058 141.15C57.9859 141.15 59.5171 141.342 60.9409 141.342C61.1936 141.342 62.2241 141.462 62.3902 141.609C62.8984 142.057 62.7528 142.776 63.153 143.168" stroke="#00ADB5" stroke-linecap="round" stroke-linejoin="round"/>
<path d="M63.0554 143.515C63.12 144.671 63.1442 146.293 63.6197 147.422C63.9279 148.154 63.6822 149.128 63.7445 149.907C63.8642 151.404 63.6414 152.862 63.6414 154.314C63.6414 156.261 63.7391 158.184 63.7391 160.12C63.7391 161.783 62.1149 161.504 60.8305 161.271C59.7209 161.069 58.2318 161.473 57.0753 161.488C54.8442 161.515 52.6027 161.683 50.3681 161.683C48.5019 161.683 47.116 161.141 45.3974 160.489C44.4797 160.141 43.925 160.218 42.9392 160.218C42.0056 160.218 41.2378 160.072 40.3019 160.364C39.7543 160.536 38.7738 160.388 38.4623 159.827C38.0888 159.155 38.8313 158.863 38.8313 158.313C38.8313 157.851 38.7732 156.53 38.929 157.776" stroke="#00ADB5" stroke-linecap="round" stroke-linejoin="round"/>
<path d="M50.0643 146.055C50.0643 146.055 50.455 146.25 50.8458 146.641C51.2365 146.934 52.0589 146.787 52.7505 146.787C53.1144 146.787 53.4986 146.504 53.8249 146.359C54.4859 146.065 54.0917 146.617 53.9335 146.934C53.7583 147.284 53.9583 147.935 54.2753 148.155C54.7983 148.517 55.3158 148.204 55.8273 147.949C56.0397 147.842 55.9814 147.793 56.0471 147.938C56.1362 148.134 56.1203 148.418 56.1203 148.632C56.1203 149.119 56.0884 149.928 55.8273 150.352C55.4839 150.911 55.1369 151.272 54.5846 151.682C54.0391 152.087 53.3183 152.794 52.5931 152.794C51.176 152.794 49.6719 152.486 48.9627 151.107C48.6622 150.522 48.1108 150.044 48.1108 149.376C48.1108 148.818 47.9263 148.15 48.1108 147.617C48.3344 146.972 48.8922 146.359 48.6969 146.359C48.7965 146.387 49.6736 145.859 50.0643 146.055Z" stroke="#00ADB5" stroke-linecap="round" stroke-linejoin="round"/>
<path d="M51.676 145.713C52.2256 145.509 53.4807 145.083 53.7761 144.419C54.0044 143.905 53.2498 143.808 52.8482 143.808C52.3611 143.808 51.7839 144.481 51.6543 144.907C51.5823 145.144 51.5138 145.386 51.4427 145.626C51.4084 145.742 51.4542 145.826 51.478 145.933C51.4961 146.014 52.2413 145.623 52.2133 145.511" stroke="#00ADB5" stroke-linecap="round" stroke-linejoin="round"/>
<path d="M61.3466 156.704L39.9194 157.174C37.6316 157.224 35.8033 159.093 35.8033 161.382C35.8033 163.706 37.6875 165.59 40.0118 165.59H61.4441C63.8984 165.59 65.888 163.601 65.888 161.146C65.888 158.654 63.8384 156.649 61.3466 156.704Z" stroke="#00ADB5"/>
<path d="M44.6565 157.056C44.9809 157.559 45.2609 158.163 45.6332 158.628C45.8204 158.862 45.7903 158.815 46.1533 158.68C46.7592 158.456 47.4457 158.617 48.0778 158.617C48.6328 158.617 49.278 158.327 49.8174 158.472C50.4422 158.64 51.1789 158.319 51.7939 158.305C52.535 158.287 53.2414 158.357 53.9785 158.357C54.4228 158.357 54.856 158.096 55.2673 158.096C55.5059 158.096 56.186 158.286 56.2035 157.848C56.212 157.635 56.3075 157.428 56.3075 157.212C56.3075 156.921 56.1331 157.047 55.8394 156.9" stroke="#00ADB5" stroke-linecap="round" stroke-linejoin="round"/>
<path d="M150.472 50.2846C150.873 49.7747 151.641 48.8311 150.565 48.6643C150.321 48.6265 150.094 48.4834 149.855 48.5917C149.118 48.9254 148.434 49.6599 148.434 50.5333C148.434 51.9283 149.964 52.2304 151.076 52.2124C152.951 52.1819 153.521 50.3549 154.184 48.875C154.853 47.3801 155.596 45.9094 156.29 44.4252C157.075 42.7458 158.363 41.4079 159.178 39.7439C159.528 39.0304 159.984 38.402 160.434 37.7505C161.132 36.7399 161.629 35.7203 162.128 34.5997C162.538 33.6803 162.992 32.8408 163.494 31.9706C163.697 31.6187 163.62 31.0796 164.008 31.4558C164.303 31.7415 164.771 31.9291 165.168 32.0017C166.901 32.319 168.494 32.6549 170.279 32.513C172.084 32.3695 173.888 32.1109 175.665 31.7667C176.269 31.6498 176.011 31.7906 175.726 32.1571C175.243 32.7789 174.831 33.4377 174.368 34.0677C173.764 34.8892 173.552 35.8785 173.195 36.8177C172.802 37.8501 172.335 38.8362 171.96 39.8856C171.235 41.9136 170.178 43.763 168.869 45.4651C168.111 46.4515 167.174 48.1743 165.754 48.1046C163.557 47.9966 165.041 43.6714 166.09 42.8256C166.656 42.3703 167.274 42.8605 167.343 43.4717C167.437 44.3114 167.149 45.4623 166.334 45.8728C165.474 46.3059 164.815 46.2539 165.476 45.1369C165.877 44.4611 166.115 45.2049 166.279 44.8743" stroke="#00ADB5" stroke-width="2" stroke-linecap="round" stroke-linejoin="round"/>
<path d="M316.062 200.957C316.464 200.447 317.232 199.503 316.155 199.336C315.911 199.299 315.684 199.156 315.445 199.264C314.709 199.597 314.025 200.332 314.025 201.205C314.025 202.6 315.555 202.903 316.666 202.884C318.541 202.854 319.112 201.027 319.774 199.547C320.443 198.052 321.186 196.582 321.88 195.097C322.666 193.418 323.954 192.08 324.769 190.416C325.118 189.703 325.574 189.074 326.024 188.423C326.722 187.412 327.22 186.392 327.719 185.272C328.128 184.352 328.582 183.513 329.084 182.643C329.287 182.291 329.211 181.752 329.599 182.128C329.893 182.414 330.362 182.601 330.758 182.674C332.491 182.991 334.085 183.327 335.869 183.185C337.674 183.042 339.478 182.783 341.255 182.439C341.859 182.322 341.602 182.463 341.317 182.829C340.834 183.451 340.421 184.11 339.958 184.74C339.355 185.561 339.142 186.551 338.785 187.49C338.393 188.522 337.925 189.508 337.55 190.558C336.825 192.586 335.768 194.435 334.459 196.137C333.701 197.124 332.765 198.846 331.345 198.777C329.147 198.669 330.631 194.344 331.681 193.498C332.246 193.042 332.864 193.533 332.933 194.144C333.028 194.984 332.74 196.134 331.924 196.545C331.064 196.978 330.405 196.926 331.067 195.809C331.467 195.133 331.705 195.877 331.87 195.546" stroke="#00ADB5" stroke-width="2" stroke-linecap="round" stroke-linejoin="round"/>
<path d="M298.357 113.07C296.518 109.738 296.627 108.786 297.046 105.432C297.277 103.585 297.365 101.781 297.832 99.9639C298.668 96.7147 298.939 92.3394 296.323 89.7233C291.175 84.5756 281.589 91.8965 284.492 98.4273C285.596 100.913 287.505 102.753 288.884 105.098C289.437 106.038 289.747 107.057 290.466 107.936C291.155 108.778 292.012 109.827 292.012 110.873C292.012 111.757 291.748 112.903 292.373 113.684C293.237 114.764 292.93 114.209 294.208 114.209C295.087 114.209 296.383 113.51 297.091 112.943C297.597 112.538 297.869 113.709 297.869 112.582C297.869 111.614 297.557 112.419 298.194 112.419" stroke="#00ADB5" stroke-linecap="round" stroke-linejoin="round"/>
<path d="M294.289 116.161C296.029 115.642 300.845 114.484 299.73 115.917C298.385 117.646 297.81 116.779 296.16 117.146C295.316 117.334 294.493 119.938 295.428 119.993C296.763 120.072 297.648 118.276 299.007 118.276C300.244 118.276 300.156 119.904 299.414 120.481C298.434 121.243 297.307 120.424 296.648 121.611C295.606 123.487 298.452 123.182 299.26 122.741C300.074 122.297 300.848 121.604 301.448 121.204" stroke="#00ADB5" stroke-linecap="round" stroke-linejoin="round"/>
<path d="M298.357 112.541C298.335 112.683 298.312 113.639 297.93 113.639C297.724 113.639 297.629 113.514 297.442 113.619C297.221 113.742 297.013 114.03 296.802 114.199C296.616 114.348 296.063 114.33 295.957 114.516C295.784 114.819 295.431 114.985 295.103 115.022C294.677 115.069 294.519 115.283 294.066 115.182C293.927 115.152 293.913 115.063 293.783 115.063C293.583 115.063 293.496 115.159 293.345 114.99C293.177 114.804 292.904 114.717 292.823 114.434C292.713 114.05 292.311 113.848 292.906 114.087" stroke="#00ADB5" stroke-linecap="round" stroke-linejoin="round"/>
<path d="M290.507 96.4344C291.234 96.4383 291.836 96.4852 292.084 97.2569C292.253 97.7819 292.256 98.2979 292.256 98.8431C292.256 99.3732 291.93 99.7994 291.93 100.298C291.93 100.958 292.458 100.85 292.904 101.051C293.326 101.241 293.631 101.399 293.86 101.824C294.086 102.244 293.915 103.057 293.885 103.514C293.859 103.907 293.672 104.743 293.944 105.075C294.091 105.256 294.899 105.535 294.371 105.138" stroke="#00ADB5" stroke-linecap="round" stroke-linejoin="round"/>
<path d="M284.365 103.796C283.782 104.183 283.188 104.508 282.537 104.752C282.264 104.854 281.904 105.037 281.965 104.61" stroke="#00ADB5" stroke-linecap="round" stroke-linejoin="round"/>
<path d="M282.25 98.1833C281.217 98.4319 280.192 98.7121 279.168 98.9877C278.998 99.0336 279.389 98.6031 279.403 98.59" stroke="#00ADB5" stroke-linecap="round" stroke-linejoin="round"/>
<path d="M281.965 92.8551C280.896 92.6996 279.83 92.5068 278.766 92.3173C278.276 92.2301 278.068 92.2943 278.345 91.8789" stroke="#00ADB5" stroke-linecap="round" stroke-linejoin="round"/>
<path d="M287.741 87.2015C286.896 87.053 286.163 86.91 285.4 86.5282C285.042 86.3494 284.698 86.1346 284.324 85.9904C283.88 85.8189 283.871 85.8711 284.365 85.5746" stroke="#00ADB5" stroke-linecap="round" stroke-linejoin="round"/>
<path d="M295.103 83.5409C295.226 84.4042 295.186 84.9212 294.836 85.7034C294.648 86.1251 294.489 86.658 294.396 87.1134C294.364 87.2702 294.346 87.3595 294.24 87.4772C294.2 87.5213 294.346 86.9974 294.371 86.9168" stroke="#00ADB5" stroke-linecap="round" stroke-linejoin="round"/>
<path d="M301.326 86.9982C301.056 87.8971 300.671 88.7595 300.44 89.66C300.323 90.1156 300.396 90.1433 300.594 89.6826" stroke="#00ADB5" stroke-linecap="round" stroke-linejoin="round"/>
<path d="M303.929 93.4652C303.005 94.265 302.247 95.2578 301.529 96.24C301.439 96.3631 301.335 96.4068 301.235 96.5066C301.009 96.7334 301.4 96.2212 301.448 96.1496" stroke="#00ADB5" stroke-linecap="round" stroke-linejoin="round"/>
<path d="M96.8311 175.052C98.1833 181.144 99.7061 187.249 100.601 193.433C101.1 196.887 100.003 191.903 99.8667 191.198C99.5715 189.672 99.2329 188.321 99.2329 186.761C99.2329 183.622 99.1488 180.447 98.916 177.304C98.753 175.104 96.0504 168.552 99.4664 174.018C102.95 179.591 105.409 185.752 107.773 191.832C108.099 192.669 108.55 193.463 108.907 194.267C109.102 194.706 105.446 191.133 104.037 190.364" stroke="#00ADB5" stroke-width="2" stroke-linecap="round" stroke-linejoin="round"/>
<path d="M94.7294 188.562C98.6326 187.005 107.239 184.067 109.741 179.689C110.789 177.855 110.585 178.703 107.639 179.255" stroke="#00ADB5" stroke-width="2" stroke-linecap="round" stroke-linejoin="round"/>
<path d="M106.438 168.147C109.451 174.11 111.632 180.459 112.46 187.078C112.536 187.691 112.679 188.365 113.11 188.796C113.19 188.876 111.665 186.022 111.242 185.26" stroke="#00ADB5" stroke-width="2" stroke-linecap="round" stroke-linejoin="round"/>
<path d="M106.438 167.847C108.774 169.246 117.353 174.413 111.759 177.704C111.268 177.993 110.693 178.26 110.341 178.722C109.598 179.7 109.508 179.987 110.041 178.655" stroke="#00ADB5" stroke-width="2" stroke-linecap="round" stroke-linejoin="round"/>
<path d="M114.244 164.844C115.239 171.585 116.946 178.992 116.946 185.86C116.946 187.377 116.693 184.568 116.346 183.759" stroke="#00ADB5" stroke-width="2" stroke-linecap="round" stroke-linejoin="round"/>
<path d="M121.15 176.853C122.798 181.767 123.646 184.662 118.815 186.094C117.164 186.583 119.158 184.185 119.582 183.892C121.027 182.892 122.466 179.671 120.849 178.054C120.206 177.411 118.667 178.224 118.214 177.454C117.547 176.319 119.042 174.172 119.949 173.618C122.555 172.025 122.227 174.27 121.15 173.551" stroke="#00ADB5" stroke-width="2" stroke-linecap="round" stroke-linejoin="round"/>
<path d="M211.336 85.6781C212.331 90.9145 216.429 106.205 214.045 101.437C213.788 100.924 213.574 100.488 213.552 99.9052C213.473 97.749 213.312 95.4948 212.567 93.4482C211.945 91.7364 212.075 89.9619 212.075 88.1404C212.075 87.7755 211.455 84.9044 211.514 84.8846C212.141 84.6757 214.727 87.8177 215.194 88.3593C217.558 91.0986 219.948 94.2465 221.637 97.4565C222.507 99.1086 222.769 99.7004 220.693 99.9599" stroke="#00ADB5" stroke-width="2" stroke-linecap="round" stroke-linejoin="round"/>
<path d="M211.09 96.2663C213.401 95.094 215.602 94.157 217.985 93.3115" stroke="#00ADB5" stroke-width="2" stroke-linecap="round" stroke-linejoin="round"/>
<path d="M217.739 85.9243C220.105 89.4685 222.358 93.24 225.112 96.5126C225.505 96.9793 226.33 97.8271 226.33 96.7315C226.33 95.2363 225.502 93.6912 225.126 92.2718C224.525 90.0014 223.966 87.7206 223.457 85.4319C222.966 83.2225 223.312 84.0474 224.141 85.7055C225.515 88.4531 226.961 90.9558 228.874 93.3936C230.163 95.0359 230.297 94.1213 230.297 92.6822C230.297 90.068 229.021 87.9183 228.081 85.5687C227.077 83.0587 227.144 79.6324 226.001 77.347C225.557 76.4583 225.495 79.2749 225.372 80.2609" stroke="#00ADB5" stroke-width="2" stroke-linecap="round" stroke-linejoin="round"/>
<path d="M231.035 77.0598C231.098 77.349 232.015 84.5179 233.635 83.7082C234.344 83.3534 234.518 82.2678 235.249 81.9024C236.433 81.3105 237.712 82.3588 238.176 83.3799C239.404 86.0796 237.991 89.2065 235.769 90.8491C232.69 93.1245 233.744 89.0282 233.744 87.8942" stroke="#00ADB5" stroke-width="2" stroke-linecap="round" stroke-linejoin="round"/>
<path d="M232.513 76.5673C232.07 77.7782 231.264 83.4003 231.022 81.2185C230.872 79.8717 231.138 78.8476 231.282 77.5522C231.623 74.4795 233.974 76.9513 233.005 75.3361" stroke="#00ADB5" stroke-width="2" stroke-linecap="round" stroke-linejoin="round"/>
<path d="M216.091 238.305C216.009 238.155 212.457 232.037 212.764 231.861C213.191 231.618 213.986 231.854 214.488 231.666C215.97 231.11 217.164 229.963 218.384 229.014C219.667 228.016 221.425 235.847 221.816 237.496C222.289 239.491 223.519 242.144 221.217 243.296C219.141 244.334 216.41 244.02 214.143 243.97C210.446 243.888 207.891 237.819 207.459 234.798C207.145 232.599 204.1 225.54 207.369 224.128C208.245 223.75 209.732 224.008 210.681 224.008C212.04 224.008 213.226 223.199 214.608 223.199C216.806 223.199 217.471 225.945 215.552 222.929" stroke="#00ADB5" stroke-width="2" stroke-linecap="round" stroke-linejoin="round"/>
<path d="M222.296 225.087C222.679 226.484 223.912 234.236 227.151 232.251C227.767 231.873 228.216 230.957 228.44 230.303C229.036 228.557 229.162 227.099 227.825 225.762C226.824 224.76 224.89 222.716 223.434 222.66C219.826 222.521 223.009 226.563 222.565 225.897" stroke="#00ADB5" stroke-width="2" stroke-linecap="round" stroke-linejoin="round"/>
<path d="M222.835 212.679C225.5 216.891 229.52 221.524 231.137 226.376C231.344 226.995 231.351 227.416 231.737 227.995C232.319 228.868 232.594 230.136 233.146 228.804C233.944 226.875 235.762 225.163 237.192 223.679C238.956 221.847 239.197 222.39 236.053 222.39" stroke="#00ADB5" stroke-width="2" stroke-linecap="round" stroke-linejoin="round"/>
<path d="M241.448 211.33C241.113 212.086 236.031 222.143 240.938 219.857C241.915 219.403 242.911 218.695 242.782 217.534C242.657 216.415 241.723 215.536 241.238 214.567C240.964 214.02 239.87 211.381 240.249 212.139C241.376 214.393 242.889 218.406 244.565 220.082C246.518 222.035 247.688 219.982 245.764 218.883" stroke="#00ADB5" stroke-width="2" stroke-linecap="round" stroke-linejoin="round"/>
<path d="M244.415 212.409C251.924 224.319 242.423 210.956 244.61 208.618C246.727 206.355 249.228 210.7 250.02 212.079C251.4 214.482 252.759 220.716 250.619 214.297" stroke="#00ADB5" stroke-width="2" stroke-linecap="round" stroke-linejoin="round"/>
<path d="M253.856 202.159C253.729 202.609 249.702 213.942 252.717 212.889C253.999 212.441 255.286 211.428 255.969 210.266C256.758 208.925 257.126 207.085 256.554 205.605C256.164 204.596 255.742 203.518 255.205 202.578C253.929 200.344 257.369 207.248 258.397 209.607C259.903 213.061 263.53 225.169 254.98 222.765C251.251 221.716 254.763 215.916 254.396 215.916" stroke="#00ADB5" stroke-width="2" stroke-linecap="round" stroke-linejoin="round"/>
<path d="M147.688 146.425C149.029 146.057 150.172 145.685 151.114 144.625C151.486 144.207 151.536 143.673 151.726 143.167C151.973 142.508 151.666 141.667 151.456 141.035C151.287 140.53 152.207 140.247 152.536 140.226C153.101 140.189 153.532 140.549 154.075 140.58C154.727 140.619 155.423 140.828 155.875 141.337C156.182 141.682 156.593 141.763 156.932 142.063C157.254 142.347 157.509 142.843 157.742 143.207C158.416 144.26 158.606 145.488 158.802 146.693C158.896 147.27 158.953 147.899 158.856 148.483C158.74 149.179 158.863 149.849 158.588 150.517C158.398 150.978 158.094 151.589 157.661 151.861C157.217 152.141 156.805 152.242 156.691 152.822C156.454 154.033 157.062 155.219 156.828 156.441C156.621 157.527 155.186 157.693 154.299 157.867C153.687 157.987 152.574 158.174 151.984 157.853C150.885 157.256 150.089 156.509 149.274 155.558C148.552 154.716 148.279 153.484 148.184 152.407C148.086 151.307 148.085 150.113 148.11 149.001C148.126 148.263 148.341 147.522 148.411 146.786C148.468 146.184 148.659 146.136 148.351 146.907" stroke="#00ADB5" stroke-linecap="round" stroke-linejoin="round"/>
<path d="M155.457 140.945C155.91 139.777 156.408 138.61 156.755 137.406C156.911 136.864 156.948 136.291 157.143 135.763C157.369 135.149 157.481 134.455 157.578 133.813C157.647 133.352 157.681 132.537 158.103 132.247C158.411 132.035 158.586 131.551 158.916 131.297C159.34 130.97 159.941 130.666 160.241 130.229C160.536 129.801 160.85 128.915 160.602 128.42C160.465 128.144 160.483 127.847 160.348 127.577C160.172 127.224 160.013 126.938 159.88 126.556C159.763 126.222 159.396 125.556 159.823 125.318C160.868 124.738 160.94 125.652 161.265 126.486C161.432 126.917 161.457 127.443 161.613 127.891C161.719 128.198 161.907 127.976 162.051 128.152C162.268 128.417 162.278 128.749 162.442 129.035C162.687 129.464 162.399 130.335 162.275 130.755C162.044 131.532 161.807 132.236 161.465 132.983C160.585 134.906 159.15 136.525 158.167 138.389C157.792 139.099 157.493 139.813 157.31 140.597C157.206 141.043 156.902 141.468 156.902 141.939C156.902 142.369 156.796 142.589 157.022 141.909" stroke="#00ADB5" stroke-linecap="round" stroke-linejoin="round"/>
<path d="M160.154 126.432C159.387 126.55 158.551 126.595 157.866 126.938C157.771 126.985 157.918 126.862 157.986 126.854C158.904 126.746 159.907 125.927 160.743 125.529C161.364 125.233 162.215 124.566 162.924 124.566C163.129 124.566 162.242 125.137 162.141 125.228" stroke="#00ADB5" stroke-linecap="round" stroke-linejoin="round"/>
<path d="M159.371 127.757C160.224 127.261 161.711 126.723 162.335 125.89C162.396 125.809 162.441 125.7 162.529 125.65C162.839 125.472 162.291 125.67 162.201 125.71" stroke="#00ADB5" stroke-linecap="round" stroke-linejoin="round"/>
<path d="M159.973 128.54C160.997 128.148 162.869 127.8 163.432 126.673C163.514 126.511 163.333 126.553 163.225 126.553" stroke="#00ADB5" stroke-linecap="round" stroke-linejoin="round"/>
<path d="M161.057 128.42C160.992 129.8 161.006 131.205 160.217 132.387C159.833 132.964 159.566 133.348 159.431 134.023C159.287 134.745 159.129 135.348 158.799 136.007C158.474 136.658 158.092 137.189 157.772 137.814C157.606 138.137 157.197 138.449 157.277 138.837C157.317 139.034 157.22 139.21 157.156 139.393C156.968 139.936 156.616 140.416 156.286 140.885C156.063 141.204 156.065 141.776 156.36 141.186" stroke="#00ADB5" stroke-linecap="round" stroke-linejoin="round"/>
<path d="M156.179 139.56C156.723 139.678 157.549 140.042 158.106 140.042C158.117 140.042 157.633 139.458 157.564 139.379" stroke="#00ADB5" stroke-linecap="round" stroke-linejoin="round"/>
<path d="M156.541 137.091C157.309 137.419 158.079 137.744 158.842 138.085C159.021 138.164 159.011 138.176 158.949 138.115C158.817 137.983 158.705 137.839 158.588 137.693" stroke="#00ADB5" stroke-linecap="round" stroke-linejoin="round"/>
<path d="M157.263 135.465C158.189 135.753 159.113 136.063 160.05 136.315C160.155 136.343 160.302 136.4 160.201 136.295C159.999 136.086 159.767 135.901 159.552 135.706" stroke="#00ADB5" stroke-linecap="round" stroke-linejoin="round"/>
<path d="M157.745 133.418C158.799 133.933 159.849 134.488 160.93 134.947C161.108 135.022 161.167 135.078 161.131 134.937C161.081 134.746 161.008 134.565 160.937 134.381" stroke="#00ADB5" stroke-linecap="round" stroke-linejoin="round"/>
<path d="M159.07 131.973C159.166 132.019 162.081 133.6 161.84 132.996" stroke="#00ADB5" stroke-linecap="round" stroke-linejoin="round"/>
<path d="M159.672 131.009C160.552 131.216 161.441 131.404 162.322 131.551" stroke="#00ADB5" stroke-linecap="round" stroke-linejoin="round"/>
<path d="M160.636 130.046C161.037 130.065 161.439 130.085 161.84 130.106" stroke="#00ADB5" stroke-linecap="round" stroke-linejoin="round"/>
<path d="M152.687 148.111C152.268 148.277 149.691 148.918 149.676 149.63C149.67 149.908 149.676 150.187 149.709 150.463C149.813 151.321 150.41 151.77 151.141 152.179C152.071 152.7 153.072 152.716 154.085 152.42C155.048 152.139 155.675 151.073 155.289 150.159C155.21 149.969 155.486 149.93 155.306 149.71C155.131 149.496 155.016 149.621 154.734 149.677" stroke="#00ADB5" stroke-linecap="round" stroke-linejoin="round"/>
<path d="M151.422 150.339C151.901 149.127 152.499 147.916 152.777 146.636C152.85 146.301 152.94 146.019 153.122 145.716C153.506 145.076 153.844 144.393 154.072 143.682C154.288 143.007 154.302 142.341 154.587 141.681C154.689 141.446 155.296 140.74 155.035 141.066" stroke="#00ADB5" stroke-linecap="round" stroke-linejoin="round"/>
<path d="M156.179 141.668C155.956 143.063 155.62 144.398 155.383 145.776C155.252 146.54 155.035 147.179 155.035 147.984C155.035 148.56 155.241 149.04 155.109 149.617C154.957 150.281 154.82 149.954 154.553 149.496" stroke="#00ADB5" stroke-linecap="round" stroke-linejoin="round"/>
<path d="M155.577 141.668C155.158 142.539 154.252 143.97 154.252 145.07C154.252 145.695 154.293 146.359 154.249 146.994C154.197 147.748 153.608 148.727 153.255 149.376C153.138 149.591 152.986 149.758 152.914 149.991C152.824 150.283 152.888 150.301 152.687 149.978" stroke="#00ADB5" stroke-linecap="round" stroke-linejoin="round"/>
<path d="M151.241 149.075C152.267 149.808 154.077 151.305 155.336 150.011C155.533 149.81 155.816 149.379 155.925 149.122C156.074 148.77 155.592 149.068 155.276 149.135" stroke="#00ADB5" stroke-linecap="round" stroke-linejoin="round"/>
<path d="M152.446 147.991C153.031 147.972 154.213 148.13 154.781 147.837C154.8 147.827 154.737 147.844 154.721 147.857C154.665 147.902 154.548 147.829 154.493 147.81" stroke="#00ADB5" stroke-linecap="round" stroke-linejoin="round"/>
<path d="M153.108 145.763C153.537 145.876 155.091 146.538 155.156 145.823" stroke="#00ADB5" stroke-linecap="round" stroke-linejoin="round"/>
<path d="M153.831 143.956C154.363 144.304 156.522 145.912 156.179 144.197" stroke="#00ADB5" stroke-linecap="round" stroke-linejoin="round"/>
<path d="M154.433 143.113C154.975 143.254 155.517 143.394 156.059 143.535" stroke="#00ADB5" stroke-linecap="round" stroke-linejoin="round"/>
<path d="M157.083 143.113C157.753 143.744 159.091 145.213 159.13 146.318C159.162 147.219 159.13 148.09 159.13 149.001C159.13 149.664 159.257 150.371 159.19 151.002C159.103 151.829 157.833 151.84 158.136 152.812C158.238 153.136 158.15 153.328 158.434 153.561C158.68 153.762 158.858 153.995 158.949 154.314C159.162 155.058 158.738 155.729 158.227 156.241C157.906 156.561 157.491 157.205 157.113 157.415C156.926 157.519 156.544 157.445 156.33 157.445C156.131 157.445 155.73 157.574 155.55 157.656C155.286 157.776 154.949 157.564 154.614 157.686" stroke="#00ADB5" stroke-linecap="round" stroke-linejoin="round"/>
<path d="M147.688 146.606C147.931 147.412 148.112 148.083 148.518 148.774C148.685 149.057 148.662 149.315 148.588 149.647C148.503 150.032 148.221 150.937 148.441 151.333C148.779 151.942 148.772 152.586 148.772 153.26C148.772 153.909 149.788 154.192 150.121 154.525C150.615 155.019 150.401 155.651 151.215 155.866C151.393 155.913 151.671 155.916 151.81 156.03C151.916 156.116 152.039 156.333 152.178 156.358C152.465 156.41 152.849 156.353 153.108 156.468C153.325 156.564 153.483 156.703 153.68 156.813C153.898 156.934 154.196 156.798 154.433 156.917C155.243 157.321 154.881 156.936 154.313 156.482" stroke="#00ADB5" stroke-linecap="round" stroke-linejoin="round"/>
<path d="M87.7611 116.361C86.1519 118.419 79.2427 126.659 85.1297 128.523C86.9568 129.102 89.3348 127.771 91.3041 127.964C94.0885 128.235 95.6539 130.602 96.339 133.061C97.1278 135.891 92.7754 140.925 94.8679 142.446C98.4515 145.053 103.613 140.645 106.574 144.145C108.253 146.129 106.488 149.011 107.528 144.332" stroke="#00ADB5" stroke-linecap="round" stroke-linejoin="round"/>
<path d="M168.574 84.2869C170.125 86.3418 173.816 90.9711 175.204 93.6106C176.386 95.8574 174.897 95.7673 173.629 94.8745C172.114 93.807 172.327 91.5365 172.759 89.964C174.219 84.6553 183.668 79.7747 184.735 87.9335C185.11 90.7993 182.548 95.6181 179.058 94.4809C174.45 92.9795 174.744 85.9475 178.229 83.3338C181.794 80.6603 187.636 83.7323 187.636 88.0993C187.636 92.9475 181.873 94.4486 179.638 90.1712C177.607 86.2836 181.206 82.2169 185.067 81.6348C186.486 81.4207 190.154 83.0608 187.594 83.9139" stroke="#00ADB5" stroke-linecap="round" stroke-linejoin="round"/>
<path d="M246.52 121.209C244.105 123.609 236.473 129.204 242.894 131.382C246.631 132.65 250.09 130.572 252.405 127.736C254.959 124.606 255.393 119.657 251.327 117.625C248.166 116.044 245.441 113.504 242.791 117.48" stroke="#00ADB5" stroke-linecap="round" stroke-linejoin="round"/>
<path d="M328.943 154.029C324.331 156.776 317.329 160.094 324.467 162.689C325.565 163.088 326.279 162.829 327.244 162.151C330.812 159.643 331.022 158.639 330.807 154.775C330.665 152.216 326.924 152.8 325.213 153.656C322.691 154.917 320.931 157.441 319.909 159.996C318.534 163.433 325.642 163.223 326.622 159.084C327.237 156.49 324.269 152.804 322.23 155.976C319.528 160.179 323.651 163.938 326.249 159.54C328.738 155.328 322.923 153.591 321.359 158.504C319.304 164.964 331.522 157.95 327.078 155.728C324.429 154.403 319.956 162.814 324.84 160.721C330.771 158.179 324.136 154.433 324.136 160.369C324.136 165.186 332.103 158.195 326.912 156.308C325.725 155.876 324.554 159.668 325.4 160.514C326.87 161.984 329.426 158.176 329.295 156.805C328.734 150.919 322.973 165.883 329.834 159.022C331.401 157.455 331.337 154.622 328.736 156.287C327.201 157.269 326.229 161.439 329.129 160.472C331.914 159.544 331.914 154.386 328.922 155.583C327.096 156.313 326.435 158.898 324.467 158.504" stroke="#00ADB5" stroke-linecap="round" stroke-linejoin="round"/>
<path d="M288.664 192.443C287.894 193.292 275.605 208.455 281.785 200.73C283.198 198.964 284.497 197.226 286.426 195.986C287.616 195.221 288.761 194.749 289.783 193.727C290.899 192.611 289.316 192.684 289.058 195.012C288.832 197.039 289.005 205.889 288.664 205.869C286.36 205.733 284.85 203.466 282.717 202.719C281.575 202.32 278.188 202.895 279.133 202.139C281.443 200.291 288.518 194.992 286.426 197.084C284.841 198.668 281.585 204.624 282.697 202.678C283.487 201.294 285.626 196.786 285.307 197.54C284.652 199.093 283.511 201.753 283.608 203.465C283.701 205.091 286.93 201.091 287.131 200.689C288.627 197.696 285.531 204.427 286.633 202.823C287.626 201.379 290.984 197.707 288.581 201.311C288.055 202.099 291.07 198.46 290.529 199.239C290.372 199.464 289.005 201.757 289.804 200.958C292.663 198.099 288.45 201.072 287.918 200.275" stroke="#00ADB5" stroke-linecap="round" stroke-linejoin="round"/>
<path d="M263.676 254.352C264.982 252.493 272.442 244.291 266.308 243.931C265.271 243.87 263.133 243.533 262.267 244.241C260.209 245.926 261.101 250.469 263.883 250.975C267.573 251.646 271.031 246.601 267.033 244.656C262.856 242.624 252.997 250.785 257.253 254.145C265.633 260.761 273.211 241.536 262.371 244.304C252.539 246.814 261.201 256.941 265.665 250.416C270.446 243.429 255.706 243.369 258.31 251.182C259.594 255.036 263.81 253.176 264.567 250.064C265.677 245.501 261.139 247.385 261.066 250.54C260.987 253.922 266.197 247.803 263.075 248.074C260.819 248.271 260.597 251.369 258.828 251.369" stroke="#00ADB5" stroke-linecap="round" stroke-linejoin="round"/>
<path d="M115.242 219.295C115.995 222.712 117.48 233.05 117.48 229.551C117.48 227.136 115.634 224.881 115.263 222.465C115.133 221.621 115.401 219.124 114.682 218.549C114.191 218.156 118.835 221.771 120.069 222.465C122.322 223.732 123.936 226.098 125.892 223.584C126.831 222.377 129.593 222.21 129.973 221.906C132.735 219.696 132.482 216.4 133.123 213.514C133.351 212.486 132.771 217.028 132.771 218.363C132.771 220.071 133.079 222.332 133.537 223.936C134.188 226.214 133.927 219.786 133.309 218.549C132.305 216.541 132.398 214.758 132.398 212.582C132.398 211.723 138.632 222.493 137.536 223.315C137.078 223.658 130.973 221.974 129.124 222.569C127.531 223.081 126.076 223.678 124.566 224.434C124.153 224.64 123.471 225.392 123.737 225.179C124.684 224.422 127.581 222.351 126.43 222.735C124.85 223.261 123.298 224.79 121.872 225.635C119.184 227.228 118.314 227.006 117.189 229.738C117.027 230.131 119.034 230.081 119.427 230.194C122.25 231 124.023 228.802 126.513 227.79C129.727 226.485 133.422 223.804 136.873 223.398C139.478 223.091 135.517 222.178 135.381 221.906" stroke="#00ADB5" stroke-linecap="round" stroke-linejoin="round"/>
<path d="M257.709 75.7091C264.738 73.4559 276.122 70.8646 282.407 65.7223C283.547 64.7892 285.313 63.8947 284.914 62.0963C283.412 55.3404 280.146 53.7559 273.704 54.4716C270.132 54.8685 266.703 58.164 263.386 59.5064C259.972 60.8884 256.556 62.7041 253.441 64.6863C250.288 66.6924 252.115 67.6861 252.115 71.1508C252.115 73.0559 253.253 75.7091 255.285 75.7091C256.211 75.7091 258.866 74.9631 256.238 74.9631C254.175 74.9631 250.974 75.2757 249.131 74.3001C247.724 73.5551 250.502 72.0883 251.162 72.0003C253.519 71.686 248.46 73.9918 247.95 74.1551C246.9 74.491 251.738 70.8249 249.048 71.6895C246.133 72.6266 250.46 70.1135 251.369 69.659C252.395 69.1459 251.5 69.9582 251.742 69.5346C252.129 68.857 254.37 66.3672 252.343 68.3951C251.664 69.074 253.875 67.2372 254.622 66.6339C256.028 65.4977 254.244 67.2216 253.897 67.5041C252.297 68.8062 251.922 67.7556 250.623 68.3329C250.08 68.5742 248.758 69.3747 248.758 68.4365C248.758 66.8178 254.47 66.0805 255.513 66.033C261.901 65.7427 266.371 62.9247 272.254 61.454C275.085 60.7463 278.179 59.727 280.832 58.4704C282.799 57.5385 286.741 54.6207 288.83 55.2175C289.65 55.452 276.986 62.8207 280.625 60.4181C283.634 58.4306 287.086 57.0349 282.572 60.7703C278.956 63.7628 285.318 60.2772 285.825 60.4802C286.737 60.845 280.21 64.5732 285.183 62.2828C287.085 61.4069 288.664 61.3636 288.664 59.2992C288.664 56.497 289.431 53.1756 285.867 54.4716C281.754 55.967 278.454 59.1633 274.202 60.4181C271.27 61.283 268.415 62.3753 265.541 63.4017C262.206 64.5926 256.171 65.9242 253.793 68.8302C252.526 70.3789 250.269 76.4143 254.933 73.8029C259.211 71.4071 259.891 66.5602 262.184 62.7387C263.323 60.8405 260.2 66.7478 259.739 68.9131C259.21 71.4034 261.554 74.2693 264.236 73.8029C267.177 73.2913 270.272 69.2289 271.322 66.7582C276.369 54.8832 267.214 66.4008 269.809 68.9959C272.563 71.75 276.76 64.4543 277.31 62.6558C277.972 60.4887 278.361 57.8175 279.154 55.7562C280.182 53.0827 273.617 56.0937 273 56.3985C269.586 58.0861 267.201 60.3373 264.878 63.3188C264.037 64.398 260.662 69.4778 262.972 70.6328C266.068 72.1807 269.868 67.3695 269.954 64.8728C270.246 56.4151 263.282 60.7497 259.076 64.0647C256.478 66.1131 258.735 70.2072 259.201 69.7418" stroke="#00ADB5" stroke-linecap="round" stroke-linejoin="round"/>
<path d="M163.353 277.848C163.191 277.978 157.054 283.271 157.054 281.764C157.054 280.882 157.733 279.938 158.338 279.361C159.535 278.221 164.264 277.344 163.125 280.128C162.361 281.995 159.239 284.746 158.359 281.226C157.994 279.763 160.503 276.83 162.027 278.076C163.707 279.451 160.095 281.202 158.96 280.583C156.933 279.478 159.367 275.542 161.322 276.357C163.366 277.208 160.555 279.537 159.623 280.003C157.445 281.092 157.75 279.332 156.639 278.221" stroke="#00ADB5" stroke-linecap="round" stroke-linejoin="round"/>
<path d="M62.2829 277.475C64.4327 281.018 68.5273 284.694 64.3548 287.918C63.2786 288.75 56.9299 292.075 57.3102 288.208C57.7733 283.5 64.7906 283.395 65.225 279.174C65.6547 275.001 55.6869 276.573 53.4149 273.746C51.9916 271.975 50.8438 268.05 51.1772 265.79C51.3071 264.909 53.539 263.201 53.3113 264.795C52.8945 267.713 43.4864 275.187 49.0638 277.641C52.8032 279.287 53.768 275.121 56.5228 274.119C62.1974 272.055 53.705 287.36 53.705 283.443" stroke="#00ADB5" stroke-linecap="round" stroke-linejoin="round"/>
<path d="M245.029 325.959C243.301 330.046 239.807 342.642 239.807 338.204C239.807 337.513 239.941 336.966 240.18 336.319C241.303 333.28 242.603 330.453 244.49 327.782C245.52 326.325 246.747 322.057 248.219 325.296C248.906 326.807 250.872 331.015 250.043 332.672C249.003 334.752 245.774 335.946 243.62 336.029C243.059 336.05 237.176 336.823 239.082 335.076C241.323 333.022 243.49 326.775 246.873 326.353C247.395 326.287 248.486 326.637 248.945 326.891C249.753 327.34 248.768 328.151 248.385 328.777C247.926 329.527 244.29 334.599 244.283 334.371C244.18 330.973 247.666 326.038 249.546 323.473C250.219 322.553 246.634 328.797 245.816 330.206C245.183 331.297 246.009 333.614 243.164 333.045" stroke="#00ADB5" stroke-linecap="round" stroke-linejoin="round"/>
<path d="M129.414 26.1066C127.75 32.6162 126.267 38.8185 125.664 45.4586C125.603 46.1228 125.184 46.5522 125.602 47.0747C126.224 47.8523 127.869 42.9079 128.502 41.584C130.509 37.3879 132.771 35.7319 132.771 30.582C132.771 29.8389 132.771 25.5619 132.771 28.3857C132.771 30.7831 133.225 33.1526 133.061 35.5547C132.936 37.3702 131.194 42.27 132.48 40.9832C134.467 38.997 132.875 29.0385 129.766 28.7794C125.522 28.4257 123.476 37.6245 122.991 40.4859C122.427 43.8151 124.774 45.2089 127.363 42.62C130.896 39.0863 131.663 31.8215 128.627 27.6813C124.455 21.9933 121.718 32.2564 121.375 34.7673C120.598 40.4473 123.77 42.2674 127.528 38.2275C128.911 36.7416 131.698 34.1723 131.113 31.8666C130.335 28.7996 125.802 31.7778 124.897 33.1098C123.614 34.9985 123.63 39.7029 125.705 41.0453C127.642 42.2987 129.527 37.1051 129.31 35.8033C128.39 30.2822 117.983 39.0467 123.157 42.1849C127.66 44.9162 130.645 32.6969 125.104 34.2079C123.561 34.6287 119.897 38.7869 123.074 38.7869" stroke="#00ADB5" stroke-linecap="round" stroke-linejoin="round"/>
<path d="M30.582 132.398C28.9061 137.146 27.6995 140.177 23.4545 142.84C22.3886 143.509 20.98 144.692 20.7609 146.031C20.2928 148.892 24.8056 152.045 27.3704 151.19C32.7746 149.389 24.5969 144.04 23.7238 142.488C22.2037 139.785 27.6979 134.931 30.2297 136.355C32.2005 137.463 33.0741 141.327 31.908 143.213C30.2092 145.961 26.5579 146.07 23.7031 145.637C21.4295 145.293 16.8754 145.761 18.2124 149.139C19.8854 153.365 27.7815 151.15 28.9658 147.564C30.1189 144.073 23.8764 142.757 25.2156 139.484C26.1355 137.235 29.0402 134.428 31.6179 134.428C34.7056 134.428 31.6221 140.196 31.1621 141.1C29.1309 145.092 26.023 145.49 22.087 146.57C14.6791 148.601 22.6595 148.887 23.1229 146.57" stroke="#00ADB5" stroke-linecap="round" stroke-linejoin="round"/>
<path d="M21.6311 183.492C20.8394 186.473 18.4987 191.561 18.7304 194.805C18.8389 196.325 19.2542 191.801 19.4348 190.288C19.7791 187.405 20.1728 184.149 21.714 181.627C21.9875 181.179 28.3129 189.075 28.8829 190.371C30.4085 193.838 28.4985 193.178 26.1065 194.307C24.7771 194.935 15.7053 198.137 15.7053 197.291C15.7053 196.404 17.4156 194.602 17.8187 193.852C19.0806 191.504 20.4344 188.556 20.9681 185.937C22.1078 180.341 21.2581 191.856 21.2581 192.733C21.2581 193.265 21.465 196.379 20.2222 196.379C18.6668 196.379 21.2737 193.452 21.7969 191.987C22.3516 190.433 24.5599 185.855 24.0138 184.217C23.2404 181.897 22.8535 189.004 22.7707 191.448C22.7145 193.105 21.9128 195.87 23.2058 193.188C23.6178 192.334 24.9477 188.83 24.9255 189.086C24.738 191.242 23.8688 193.465 23.8688 195.633C23.8688 197.853 25.0394 190.709 27.0596 189.79C27.5619 189.562 26.8524 193.774 26.8524 194.39C26.8524 195.513 27.9298 190.077 27.9298 191.199C27.9298 191.512 27.4828 193.403 27.1425 192.816C25.7477 190.406 24.6984 188.918 21.8383 188.05C20.5357 187.655 16.3953 187.926 17.7566 187.926C18.6513 187.926 20.0565 184.812 21.051 185.626C22.3703 186.705 20.5596 190.151 20.1393 191.324C19.4511 193.244 19.0202 190.544 20.7194 190.744C22.49 190.952 20.6836 197.49 21.6725 196.006C22.1315 195.318 23.5218 191.921 23.4751 192.318C22.5724 199.992 22.7602 190.22 24.2418 192.443" stroke="#00ADB5" stroke-linecap="round" stroke-linejoin="round"/>
<path d="M206.242 82.0492C210.987 81.8148 215.569 83.5691 214.82 77.9467C214.448 75.1607 212.887 70.6062 213.701 67.8771C214.565 64.9796 219.87 58.4453 215.338 56.3985C211.537 54.6821 206.57 59.5358 205.869 62.8215C205.577 64.1881 205.64 68.4572 207.899 68.4572C209.607 68.4572 210.698 66.7805 212.188 68.2707C214.137 70.2189 214.484 71.996 213.1 74.4451C209.777 80.3239 196.632 73.7576 203.714 66.6753C204.685 65.7046 208.524 61.2525 210.344 62.5314C212.848 64.2909 212.509 68.8717 211.215 71.1507C209.923 73.4234 205.184 75.803 203.32 72.8912C202.399 71.4522 202.84 70.4877 204.377 70.4877" stroke="#00ADB5" stroke-linecap="round" stroke-linejoin="round"/>
<path d="M245.974 116.951C246.412 116.774 260.055 110.039 259.421 113.74C259.08 115.726 259.308 117.578 259.587 119.562C259.693 120.321 261.543 126.234 259.69 126.234C256.238 126.234 252.869 124.5 249.413 125.156C247.981 125.428 245.127 126.41 245.021 124.12C244.941 122.403 243.514 114.685 246.906 115.439C249.702 116.06 249.823 113.841 247.839 118.775C247.557 119.475 245.705 124.737 246.015 124.493C249.118 122.056 250.819 117.369 253.661 114.527C255.435 112.753 252.393 119.874 252.024 120.764C250.136 125.309 254.962 116.912 255.505 116.081C257.89 112.434 256.079 118.964 255.712 120.039C254.609 123.27 258 117.236 259.359 116.433C263.86 113.774 259.607 122.96 258.654 121.054" stroke="#00ADB5" stroke-linecap="round" stroke-linejoin="round"/>
<path d="M209.225 187.221C209.44 192.703 209.344 195.694 213.991 192.235C215.309 191.254 214.749 193.576 214.426 194.142C213.886 195.087 210.72 199.838 213.908 198.016C214.715 197.555 216.892 196.634 216.892 198.41C216.892 198.69 215.916 202.12 216.871 201.166C218.436 199.6 218.464 193.7 218.549 191.407C218.568 190.906 218.787 190.324 218.342 190.578C216.056 191.884 214.971 198.723 213.784 201.393C212.759 203.698 209.806 200.983 208.107 199.902C204.886 197.852 206.912 199.308 206.988 199.156" stroke="#00ADB5" stroke-linecap="round" stroke-linejoin="round"/>
<path d="M183.492 236.078C183.478 236.252 183.04 246.958 183.119 241.755C183.143 240.167 183.097 238.578 183.119 236.99C183.181 232.479 183.986 234.572 185.937 236.43C186.831 237.282 190.113 239.121 189.583 240.843C189.427 241.351 184.158 242.268 183.326 242.584C182.702 242.821 179.016 245.141 179.016 245.029C179.016 242.257 179.992 239.259 180.322 236.492C181.019 230.635 185.072 246.315 185.336 242.356C185.398 241.424 185.357 235.876 185.357 237.259C185.357 238.289 186.102 243.782 186.102 240.18C186.102 239.365 186.102 238.55 186.102 237.735C186.102 237.351 186.312 239.191 186.455 238.834C186.971 237.542 186.102 234.944 186.102 238.108C186.102 241.661 185.107 239.103 182.932 239.103C181.072 239.103 180.007 245.919 180.964 244.324C181.802 242.927 180.151 237.239 180.881 240.16C181.263 241.689 182.182 239.999 182.746 239.434" stroke="#00ADB5" stroke-linecap="round" stroke-linejoin="round"/>
</svg>
