<svg width="291" height="342" viewBox="0 0 291 342" fill="none" xmlns="http://www.w3.org/2000/svg">
<path fill-rule="evenodd" clip-rule="evenodd" d="M210.467 68.6102C208.7 67.9657 207.018 67.0237 205.483 65.7158C193.893 55.8422 198.863 40.9458 205.876 33.1904C212.89 25.4351 255.796 28.5285 235.556 64.456C235.47 64.5074 235.384 64.5591 235.295 64.6111C233.032 71.8117 234.941 77.9877 237.23 85.3981C238.164 88.4205 239.162 91.6482 239.965 95.2346L218.499 93.6964C212.599 85.6845 210.362 77.6083 210.467 68.6102Z" fill="#F5B9AB"/>
<path d="M205.483 65.7158L205.029 66.2482L205.483 65.7158ZM210.467 68.6102L210.707 67.9532C210.986 68.0549 211.17 68.3216 211.166 68.6184L210.467 68.6102ZM205.876 33.1904L205.358 32.7213L205.876 33.1904ZM235.556 64.456L236.165 64.7993C236.106 64.9047 236.02 64.9928 235.917 65.0552L235.556 64.456ZM235.295 64.6111L234.628 64.4014C234.68 64.2361 234.791 64.0959 234.941 64.0081L235.295 64.6111ZM237.23 85.3981L236.562 85.6046L236.562 85.6046L237.23 85.3981ZM239.965 95.2346L240.648 95.0816C240.696 95.2974 240.64 95.5234 240.495 95.691C240.351 95.8586 240.136 95.948 239.915 95.9322L239.965 95.2346ZM218.499 93.6964L218.449 94.3941C218.245 94.3794 218.057 94.276 217.936 94.1112L218.499 93.6964ZM205.936 65.1833C207.404 66.434 209.013 67.3353 210.707 67.9532L210.227 69.2673C208.387 68.5961 206.631 67.6134 205.029 66.2482L205.936 65.1833ZM206.395 33.6596C202.97 37.4473 200.05 42.9781 199.398 48.7374C198.751 54.4644 200.341 60.4163 205.936 65.1833L205.029 66.2482C199.035 61.1417 197.315 54.7086 198.008 48.5802C198.698 42.484 201.769 36.689 205.358 32.7213L206.395 33.6596ZM234.946 64.1127C239.959 55.2144 240.991 48.4728 239.764 43.4905C238.542 38.5271 235.04 35.1584 230.637 33.0743C226.225 30.9856 220.956 30.2156 216.355 30.4501C214.057 30.5672 211.947 30.9339 210.212 31.4988C208.464 32.0678 207.156 32.818 206.395 33.6596L205.358 32.7213C206.35 31.624 207.918 30.7744 209.779 30.1686C211.654 29.5585 213.888 29.1752 216.283 29.0531C221.067 28.8092 226.575 29.6038 231.236 31.81C235.906 34.0208 239.773 37.6772 241.123 43.156C242.467 48.616 241.272 55.7339 236.165 64.7993L234.946 64.1127ZM234.941 64.0081C235.027 63.9573 235.112 63.9069 235.195 63.8569L235.917 65.0552C235.829 65.1079 235.74 65.1609 235.649 65.2142L234.941 64.0081ZM236.562 85.6046C234.281 78.2235 232.29 71.8402 234.628 64.4014L235.962 64.8208C233.774 71.7832 235.6 77.7519 237.899 85.1916L236.562 85.6046ZM239.283 95.3875C238.486 91.832 237.497 88.6293 236.562 85.6046L237.899 85.1916C238.832 88.2117 239.837 91.4645 240.648 95.0816L239.283 95.3875ZM218.549 92.9988L240.015 94.5369L239.915 95.9322L218.449 94.3941L218.549 92.9988ZM211.166 68.6184C211.063 77.4757 213.258 85.4009 219.062 93.2817L217.936 94.1112C211.939 85.968 209.66 77.7409 209.768 68.602L211.166 68.6184Z" fill="black"/>
<path d="M239.407 42.76C242.766 47.4334 239.148 58.9759 236.478 61.8629C258.598 49.5895 244.594 21.8977 237.769 26.9474C236.657 16.7094 224.909 13.0972 216.901 21.7559C196.823 5.54145 195.767 33.1703 202.853 37.372C209.94 41.5737 218.538 37.5724 223 39.7391C227.463 41.9058 230.216 55.0303 231.662 47.746C233.107 40.4617 235.208 36.9183 239.407 42.76Z" fill="#00ADB5" stroke="black" stroke-width="1.39887"/>
<path d="M259.259 246.627L228.123 244.367L235.616 160.558C235.616 160.558 199.491 74.9527 230.502 74.9523C274.318 74.9524 288.97 142.46 288.424 160.558C287.878 178.656 259.259 246.627 259.259 246.627Z" fill="#EEEEEE" stroke="black" stroke-width="1.39887"/>
<path d="M227.888 247.992L228.323 244.208L259.678 245.468L258.987 251.549C257.869 261.382 248.021 267.722 238.608 264.669C231.521 262.371 227.036 255.394 227.888 247.992Z" fill="#F5B9AB" stroke="black" stroke-width="1.39887" stroke-linejoin="round"/>
<path d="M182.693 186.315C162.44 166.678 187.61 101.631 191.714 93.89C197.691 82.8586 215.63 63.6678 239.572 75.1563C275.777 92.5292 259.233 178.489 252.724 208.285L182.693 186.315Z" fill="#EEEEEE" stroke="black" stroke-width="1.39887"/>
<path d="M24.9794 254.487L21.7156 224.984C21.7156 224.984 97.4923 200.426 159.944 191.211L245.694 198.618C258.574 229.056 252.222 284.995 156.688 259.278L24.9794 254.487Z" fill="#00ADB5" stroke="black" stroke-width="1.39887"/>
<path fill-rule="evenodd" clip-rule="evenodd" d="M116.802 202.797L103.338 244.671L75.0899 243.291L63.7606 174.627C60.8084 156.735 74.6124 140.466 92.7471 140.466L96.5375 140.466C97.8785 140.466 99.1934 140.554 100.478 140.724L101.85 138.579L225.163 178.246C250.545 186.411 261.962 215.88 248.704 239.014L244.602 246.173C231.568 268.917 201.097 274.26 181.103 257.309L116.802 202.797Z" fill="#00ADB5"/>
<path d="M116.802 202.797L117.254 202.263L116.456 201.587L116.136 202.583L116.802 202.797ZM103.338 244.671L103.304 245.369L103.84 245.396L104.004 244.885L103.338 244.671ZM75.0899 243.291L74.3998 243.405L74.4918 243.962L75.0558 243.989L75.0899 243.291ZM63.7606 174.627L64.4507 174.513L63.7606 174.627ZM92.7471 140.466V139.767V140.466ZM96.5375 140.466V141.166V141.166V140.466ZM100.478 140.724L100.386 141.418L100.827 141.476L101.067 141.101L100.478 140.724ZM101.85 138.579L102.064 137.913L101.551 137.748L101.261 138.202L101.85 138.579ZM225.163 178.246L224.949 178.912L225.163 178.246ZM248.704 239.014L248.098 238.666L248.704 239.014ZM244.602 246.173L243.995 245.826L243.995 245.826L244.602 246.173ZM181.103 257.309L180.65 257.843L181.103 257.309ZM116.136 202.583L102.672 244.457L104.004 244.885L117.468 203.011L116.136 202.583ZM103.372 243.972L75.1241 242.592L75.0558 243.989L103.304 245.369L103.372 243.972ZM75.78 243.177L64.4507 174.513L63.0705 174.741L74.3998 243.405L75.78 243.177ZM64.4507 174.513C61.5688 157.047 75.0441 141.166 92.7471 141.166V139.767C74.1806 139.767 60.048 156.422 63.0705 174.741L64.4507 174.513ZM92.7471 141.166L96.5375 141.166V139.767L92.7471 139.767V141.166ZM96.5375 141.166C97.8479 141.166 99.1321 141.252 100.386 141.418L100.569 140.031C99.2546 139.857 97.9091 139.767 96.5375 139.767V141.166ZM101.067 141.101L102.439 138.956L101.261 138.202L99.8885 140.347L101.067 141.101ZM101.636 139.245L224.949 178.912L225.377 177.58L102.064 137.913L101.636 139.245ZM224.949 178.912C249.908 186.94 261.134 215.918 248.098 238.666L249.311 239.362C262.79 215.842 251.183 185.881 225.377 177.58L224.949 178.912ZM248.098 238.666L243.995 245.826L245.208 246.521L249.311 239.362L248.098 238.666ZM243.995 245.826C231.179 268.189 201.216 273.444 181.555 256.776L180.65 257.843C200.978 275.077 231.958 269.644 245.208 246.521L243.995 245.826ZM181.555 256.776L117.254 202.263L116.35 203.33L180.65 257.843L181.555 256.776Z" fill="black"/>
<path d="M74.765 242.972L103.651 244.68L105.89 268.93C105.89 268.93 80.5494 268.195 65.1773 263.387L75.5096 258.309L74.765 242.972Z" fill="#EEEEEE" stroke="black" stroke-width="1.39887" stroke-linejoin="round"/>
<rect width="70.7162" height="13.2593" rx="2.00878" transform="matrix(0.258819 0.965926 0.965926 -0.258819 65.0297 66.2063)" fill="#EEEEEE" stroke="black" stroke-width="1.39887"/>
<rect width="70.7162" height="13.2593" rx="2.00878" transform="matrix(-1 0 0 1 151.24 127.598)" fill="#00ADB5" stroke="black" stroke-width="1.39887"/>
<path d="M21.9404 225.005L25.5132 254.502L3.95156 260.453C3.95156 260.453 -0.110787 235.038 1.85776 218.804L8.97859 228.16L21.9404 225.005Z" fill="#EEEEEE" stroke="black" stroke-width="1.39887" stroke-linejoin="round"/>
<path d="M129.015 148.715L145.196 121.754L194.807 148.768C192.533 117.591 213.932 72.7217 236.403 75.4548C275.825 80.2492 246.782 177.419 220.958 194.547C195.133 211.675 129.015 148.715 129.015 148.715Z" fill="#EEEEEE"/>
<path d="M252.1 135.09C245.999 160.655 233.121 186.48 220.958 194.547C195.133 211.675 129.015 148.715 129.015 148.715L145.196 121.754L194.807 148.768L211.67 106.465" stroke="black" stroke-width="1.39887"/>
<path d="M142.249 119.708L145.348 121.924L129.046 148.737L124.063 145.185C116.005 139.441 115.233 127.754 122.467 121C127.913 115.916 136.188 115.375 142.249 119.708Z" fill="#F5B9AB" stroke="black" stroke-width="1.39887" stroke-linejoin="round"/>
</svg>
