<svg width="414" height="354" viewBox="0 0 414 354" fill="none" xmlns="http://www.w3.org/2000/svg">
<path d="M128.189 25.2863C121.24 25.2863 116.921 24.9298 115.067 24.6792C114.834 24.6477 114.785 24.3481 114.992 24.2348L127.329 17.4713C127.557 17.3464 127.468 17.0001 127.208 17.0001H114.378" stroke="#EEEEEE" stroke-width="1.39887" stroke-linecap="round"/>
<path d="M106.092 32.0658C99.1435 32.0658 94.8239 31.7093 92.9707 31.4587C92.7373 31.4272 92.6886 31.1276 92.8951 31.0144L105.232 24.2509C105.46 24.1259 105.371 23.7796 105.112 23.7796H92.2816" stroke="#EEEEEE" stroke-width="1.39887" stroke-linecap="round"/>
<path d="M129.695 63.4529C122.747 63.4529 118.427 63.0964 116.574 62.8459C116.34 62.8143 116.292 62.5147 116.498 62.4015L128.835 55.638C129.063 55.5131 128.975 55.1667 128.715 55.1667H115.885" stroke="#EEEEEE" stroke-width="1.39887" stroke-linecap="round"/>
<path d="M108.738 197.924L176.736 194.636C176.736 194.636 236.552 170.652 264.394 218.72C292.236 266.789 212.634 327.112 212.634 327.112L184.645 321.177L200.716 260.898C200.716 260.898 132.019 277.936 108.738 197.924Z" fill="#00ADB5"/>
<path d="M108.738 197.924L108.704 197.226C108.49 197.236 108.293 197.344 108.169 197.518C108.044 197.693 108.007 197.914 108.066 198.12L108.738 197.924ZM176.736 194.636L176.77 195.334L176.887 195.329L176.997 195.285L176.736 194.636ZM212.634 327.112L212.489 327.796L212.801 327.862L213.056 327.669L212.634 327.112ZM184.645 321.177L183.969 320.997L183.779 321.709L184.5 321.861L184.645 321.177ZM200.716 260.898L201.392 261.079L201.697 259.934L200.548 260.219L200.716 260.898ZM108.772 198.623L176.77 195.334L176.702 193.937L108.704 197.226L108.772 198.623ZM212.779 326.427L184.79 320.493L184.5 321.861L212.489 327.796L212.779 326.427ZM185.32 321.357L201.392 261.079L200.04 260.718L183.969 320.997L185.32 321.357ZM200.716 260.898C200.548 260.219 200.548 260.219 200.548 260.219C200.547 260.22 200.547 260.22 200.546 260.22C200.545 260.22 200.542 260.221 200.538 260.222C200.531 260.224 200.52 260.226 200.504 260.23C200.473 260.237 200.426 260.248 200.363 260.263C200.237 260.292 200.047 260.334 199.797 260.385C199.298 260.489 198.559 260.631 197.608 260.784C195.705 261.09 192.956 261.44 189.583 261.612C182.834 261.956 173.599 261.588 163.65 258.743C143.796 253.067 120.983 237.503 109.41 197.729L108.066 198.12C119.775 238.357 142.951 254.28 163.265 260.088C173.4 262.986 182.795 263.359 189.654 263.009C193.085 262.834 195.885 262.478 197.83 262.165C198.803 262.008 199.562 261.862 200.081 261.755C200.34 261.701 200.539 261.658 200.674 261.627C200.741 261.611 200.793 261.599 200.828 261.591C200.846 261.587 200.859 261.583 200.869 261.581C200.873 261.58 200.877 261.579 200.88 261.578C200.881 261.578 200.882 261.578 200.883 261.578C200.884 261.577 200.884 261.577 200.716 260.898ZM176.736 194.636C176.997 195.285 176.997 195.285 176.997 195.285C176.997 195.285 176.997 195.285 176.998 195.284C177 195.284 177.002 195.283 177.005 195.282C177.012 195.279 177.022 195.275 177.036 195.27C177.063 195.259 177.105 195.243 177.16 195.221C177.271 195.178 177.437 195.115 177.657 195.035C178.095 194.873 178.744 194.641 179.582 194.363C181.257 193.806 183.684 193.062 186.686 192.318C192.691 190.83 200.979 189.345 210.124 189.352C228.402 189.364 250.033 195.322 263.789 219.071L264.999 218.37C250.913 194.05 228.715 187.965 210.125 187.953C200.835 187.947 192.429 189.454 186.349 190.96C183.308 191.714 180.845 192.469 179.14 193.035C178.288 193.319 177.624 193.556 177.173 193.722C176.947 193.805 176.774 193.871 176.657 193.916C176.599 193.938 176.554 193.956 176.524 193.968C176.509 193.974 176.497 193.978 176.489 193.981C176.485 193.983 176.482 193.984 176.48 193.985C176.479 193.986 176.478 193.986 176.477 193.986C176.476 193.986 176.476 193.987 176.736 194.636ZM263.789 219.071C270.632 230.886 270.888 243.464 267.38 255.743C263.867 268.038 256.585 280.003 248.403 290.512C240.225 301.015 231.175 310.028 224.165 316.418C220.662 319.612 217.67 322.148 215.556 323.885C214.499 324.754 213.661 325.422 213.088 325.873C212.802 326.098 212.582 326.269 212.434 326.383C212.36 326.441 212.304 326.484 212.267 326.512C212.248 326.526 212.234 326.537 212.225 326.544C212.22 326.548 212.217 326.55 212.214 326.552C212.213 326.553 212.213 326.553 212.212 326.554C212.212 326.554 212.211 326.554 212.634 327.112C213.056 327.669 213.057 327.669 213.057 327.668C213.058 327.668 213.059 327.667 213.061 327.666C213.063 327.664 213.067 327.661 213.072 327.657C213.082 327.649 213.097 327.638 213.116 327.623C213.155 327.593 213.213 327.549 213.289 327.491C213.44 327.374 213.664 327.2 213.954 326.972C214.533 326.516 215.379 325.841 216.444 324.966C218.574 323.216 221.584 320.664 225.108 317.452C232.154 311.029 241.264 301.957 249.507 291.371C257.745 280.791 265.143 268.663 268.725 256.128C272.311 243.577 272.077 230.589 264.999 218.37L263.789 219.071Z" fill="black"/>
<path d="M213.916 326.165L185.951 317.296L175.173 341.067C175.173 341.067 199.116 349.331 215.202 349.925L207.366 341.107L213.916 326.165Z" fill="#EEEEEE" stroke="black" stroke-width="1.39887" stroke-linejoin="round"/>
<path d="M105.975 200.289L195.716 199.531C195.716 199.531 258.829 212.566 255.496 268.016C252.164 323.466 152.489 329.799 152.489 329.799L132.431 309.396L181.952 261.966C181.952 261.966 114.448 277.234 105.975 200.289Z" fill="#00ADB5" stroke="black" stroke-width="1.39887"/>
<path d="M154.081 329.719L135.664 306.882L113.551 320.748C113.551 320.748 128.948 340.859 142.032 350.237L140.368 338.559L154.081 329.719Z" fill="#EEEEEE" stroke="black" stroke-width="1.39887" stroke-linejoin="round"/>
<path fill-rule="evenodd" clip-rule="evenodd" d="M114.375 107.366C115.665 105.575 116.676 103.551 117.303 101.269C122.039 84.0388 107.387 72.8576 95.4629 69.9568C83.5383 67.0559 43.9312 98.3653 87.2807 119.886C87.3977 119.88 87.5165 119.873 87.6371 119.865C94.5831 125.361 96.8051 132.615 99.4712 141.318C100.559 144.868 101.72 148.659 103.306 152.671L123.128 137.015C123.57 125.346 120.413 116.031 114.375 107.366Z" fill="#F5B9AB"/>
<path d="M117.303 101.269L117.978 101.454L117.978 101.454L117.303 101.269ZM114.375 107.366L113.807 106.958C113.634 107.199 113.631 107.523 113.801 107.766L114.375 107.366ZM95.4629 69.9568L95.6282 69.2772L95.4629 69.9568ZM87.2807 119.886L86.9697 120.513C87.078 120.567 87.1984 120.591 87.3191 120.585L87.2807 119.886ZM87.6371 119.865L88.0711 119.316C87.9352 119.209 87.7641 119.155 87.5911 119.167L87.6371 119.865ZM99.4712 141.318L100.14 141.113L99.4712 141.318ZM103.306 152.671L102.655 152.928C102.737 153.133 102.911 153.288 103.124 153.346C103.338 153.403 103.566 153.357 103.739 153.219L103.306 152.671ZM123.128 137.015L123.562 137.564C123.722 137.437 123.819 137.246 123.827 137.042L123.128 137.015ZM116.629 101.083C116.025 103.28 115.051 105.23 113.807 106.958L114.943 107.775C116.278 105.921 117.327 103.822 117.978 101.454L116.629 101.083ZM95.2976 70.6364C101.142 72.0581 107.649 75.512 112.1 80.695C116.53 85.8534 118.927 92.7207 116.629 101.083L117.978 101.454C120.415 92.5868 117.854 85.2485 113.161 79.7836C108.489 74.3434 101.708 70.7562 95.6282 69.2772L95.2976 70.6364ZM87.5918 119.26C76.8403 113.922 71.3609 108.04 69.2499 102.354C67.1458 96.6868 68.3352 91.0677 71.2469 86.118C74.1641 81.1589 78.7865 76.9218 83.4209 74.1058C85.7356 72.6994 88.0352 71.6585 90.1045 71.0584C92.1869 70.4544 93.9745 70.3145 95.2976 70.6364L95.6282 69.2772C93.9702 68.8738 91.9116 69.0778 89.7148 69.7149C87.505 70.3558 85.0926 71.4532 82.6945 72.9103C77.9035 75.8215 73.0976 80.213 70.0412 85.4087C66.9792 90.6139 65.6496 96.676 67.9385 102.841C70.2207 108.988 76.0464 115.09 86.9697 120.513L87.5918 119.26ZM87.5911 119.167C87.4731 119.175 87.3568 119.182 87.2424 119.188L87.3191 120.585C87.4387 120.578 87.56 120.571 87.6831 120.563L87.5911 119.167ZM100.14 141.113C97.4829 132.439 95.2129 124.968 88.0711 119.316L87.2031 120.413C93.9533 125.755 96.1274 132.79 98.8024 141.523L100.14 141.113ZM103.956 152.413C102.382 148.431 101.228 144.666 100.14 141.113L98.8024 141.523C99.8892 145.071 101.058 148.887 102.655 152.928L103.956 152.413ZM122.695 136.466L102.872 152.122L103.739 153.219L123.562 137.564L122.695 136.466ZM113.801 107.766C119.759 116.315 122.865 125.482 122.429 136.989L123.827 137.042C124.275 125.21 121.068 115.747 114.949 106.967L113.801 107.766Z" fill="black"/>
<path d="M69.2294 101.366C69.052 108.119 80.1789 116.936 84.6748 117.977C55.1064 120.656 50.4302 84.5377 60.3866 84.9368C54.7117 74.2652 63.7319 63.0084 77.2179 66.1299C86.0103 37.1444 105.263 63.2664 101.156 72.0204C97.0494 80.7744 86.0635 82.5628 83.1616 87.6099C80.2597 92.6569 86.2456 107.213 80.0368 101.096C73.8281 94.9789 69.4511 92.9254 69.2294 101.366Z" fill="#00ADB5" stroke="black" stroke-width="1.39887"/>
<path d="M197.864 196.474C210.62 167.084 169.652 137.101 160.615 130.944C159.454 130.152 158.275 129.457 157.046 128.774C133.529 115.713 100.434 114.004 88.3872 138.056C67.3291 180.098 119.829 223.99 139.22 251.947L197.864 196.474Z" fill="#EEEEEE"/>
<path d="M160.615 130.944L161.009 130.366L160.615 130.944ZM197.864 196.474L198.345 196.982L198.449 196.884L198.506 196.753L197.864 196.474ZM139.22 251.947L138.645 252.346C138.761 252.513 138.945 252.622 139.147 252.643C139.35 252.664 139.552 252.595 139.7 252.455L139.22 251.947ZM88.3872 138.056L87.7618 137.743L88.3872 138.056ZM157.046 128.774L157.386 128.163L157.046 128.774ZM160.221 131.522C164.721 134.588 177.157 143.579 186.871 155.44C196.609 167.332 203.435 181.882 197.222 196.196L198.506 196.753C205.049 181.677 197.769 166.54 187.953 154.554C178.112 142.537 165.546 133.457 161.009 130.366L160.221 131.522ZM197.383 195.966L138.739 251.439L139.7 252.455L198.345 196.982L197.383 195.966ZM139.794 251.548C134.923 244.525 127.976 236.505 120.671 227.819C113.352 219.117 105.654 209.723 99.2203 199.9C86.3367 180.227 78.6595 159.039 89.0125 138.369L87.7618 137.743C77.0568 159.115 85.1005 180.893 98.05 200.666C104.533 210.566 112.28 220.015 119.6 228.719C126.934 237.44 133.821 245.391 138.645 252.346L139.794 251.548ZM156.707 129.386C157.925 130.063 159.084 130.747 160.221 131.522L161.009 130.366C159.824 129.558 158.624 128.851 157.386 128.163L156.707 129.386ZM157.386 128.163C145.53 121.578 131.242 117.842 118.364 118.8C105.468 119.76 93.9236 125.441 87.7618 137.743L89.0125 138.369C94.898 126.619 105.924 121.129 118.467 120.195C131.028 119.261 145.046 122.91 156.707 129.386L157.386 128.163Z" fill="black"/>
<path d="M213.68 181.269L193.339 157.321L163.777 180.347C159.091 146.601 121.546 119.393 107.019 123.16C67.9654 133.288 112.243 220.939 140.491 233.622C168.739 246.306 213.68 181.269 213.68 181.269Z" fill="#EEEEEE" stroke="black" stroke-width="1.39887"/>
<path d="M195.103 155.384L192.521 157.96L213.19 181.973L217.409 177.775C224.484 170.737 223.345 158.983 215.049 153.435C208.786 149.247 200.437 150.063 195.103 155.384Z" fill="#F5B9AB" stroke="black" stroke-width="1.39887" stroke-linejoin="round"/>
<path fill-rule="evenodd" clip-rule="evenodd" d="M91.9353 249.365C91.6055 249.28 91.2735 249.522 91.2741 249.863L91.4329 341.039H73.1879C72.9106 341.039 72.6857 341.264 72.6857 341.542L72.6857 352.641C72.6857 352.918 72.9106 353.143 73.1879 353.143H125.094C125.371 353.143 125.596 352.918 125.596 352.641V341.542C125.596 341.264 125.371 341.039 125.094 341.039H105.279V249.388C105.279 249.089 105.019 248.856 104.721 248.89C103.727 249.004 102.793 249.121 101.91 249.233C97.8481 249.744 94.8548 250.121 91.9353 249.365Z" fill="#00ADB5"/>
<path d="M91.2741 249.863L90.5747 249.864V249.864L91.2741 249.863ZM91.9353 249.365L92.1106 248.688V248.688L91.9353 249.365ZM91.4329 341.039V341.739H92.1336L92.1324 341.038L91.4329 341.039ZM72.6857 341.542H73.3852H72.6857ZM72.6857 352.641H71.9863H72.6857ZM105.279 341.039H104.579V341.739H105.279V341.039ZM104.721 248.89L104.642 248.195V248.195L104.721 248.89ZM101.91 249.233L101.823 248.539L101.91 249.233ZM91.9735 249.862C91.9736 249.93 91.9376 249.986 91.8988 250.015C91.8619 250.043 91.8108 250.055 91.7599 250.042L92.1106 248.688C91.3658 248.495 90.5732 249.037 90.5747 249.864L91.9735 249.862ZM92.1324 341.038L91.9735 249.862L90.5747 249.864L90.7335 341.041L92.1324 341.038ZM73.1879 341.739H91.4329V340.34H73.1879V341.739ZM73.3852 341.542C73.3852 341.651 73.2969 341.739 73.1879 341.739V340.34C72.5243 340.34 71.9863 340.878 71.9863 341.542H73.3852ZM73.3852 352.641L73.3852 341.542H71.9863L71.9863 352.641H73.3852ZM73.1879 352.444C73.2969 352.444 73.3852 352.532 73.3852 352.641H71.9863C71.9863 353.305 72.5243 353.843 73.1879 353.843V352.444ZM125.094 352.444H73.1879V353.843H125.094V352.444ZM124.897 352.641C124.897 352.532 124.985 352.444 125.094 352.444V353.843C125.758 353.843 126.296 353.305 126.296 352.641H124.897ZM124.897 341.542V352.641H126.296V341.542H124.897ZM125.094 341.739C124.985 341.739 124.897 341.651 124.897 341.542H126.296C126.296 340.878 125.758 340.34 125.094 340.34V341.739ZM105.279 341.739H125.094V340.34H105.279V341.739ZM104.579 249.388V341.039H105.978V249.388H104.579ZM104.801 249.585C104.681 249.599 104.579 249.505 104.579 249.388H105.978C105.978 248.673 105.356 248.114 104.642 248.195L104.801 249.585ZM101.998 249.927C102.881 249.815 103.811 249.698 104.801 249.585L104.642 248.195C103.643 248.309 102.706 248.428 101.823 248.539L101.998 249.927ZM91.7599 250.042C94.8344 250.838 97.971 250.434 101.998 249.927L101.823 248.539C97.7251 249.055 94.8752 249.404 92.1106 248.688L91.7599 250.042Z" fill="black"/>
<path d="M70.3887 158.489C82.3218 186.932 59.9096 197.354 60.1708 216.261C60.5323 242.428 103.206 267.675 129.912 213.003" stroke="black" stroke-width="1.39887"/>
<rect x="22.3703" y="103.616" width="32.5071" height="105.129" rx="15.8191" transform="rotate(-22.7603 22.3703 103.616)" fill="#00ADB5" stroke="black" stroke-width="1.39887"/>
<rect x="316.189" y="211.01" width="15.5619" height="142.132" rx="0.502194" fill="#00ADB5" stroke="black" stroke-width="1.39887"/>
<rect x="199.858" y="210.364" width="52.107" height="112.515" rx="24.5617" transform="rotate(88.7489 199.858 210.364)" fill="#00ADB5" stroke="black" stroke-width="1.39887"/>
<rect x="411.967" y="183.752" width="32.5071" height="176.822" rx="15.8191" transform="rotate(88.7489 411.967 183.752)" fill="#00ADB5" stroke="black" stroke-width="1.39887"/>
<rect x="386.425" y="98.6036" width="82.9969" height="15.5619" rx="2.00878" transform="rotate(105 386.425 98.6036)" fill="#00ADB5" stroke="black" stroke-width="1.39887"/>
<rect x="285.245" y="170.656" width="82.9969" height="15.5619" rx="2.00878" fill="#EEEEEE" stroke="black" stroke-width="1.39887"/>
</svg>
