<svg width="237" height="321" viewBox="0 0 237 321" fill="none" xmlns="http://www.w3.org/2000/svg">
<rect x="110.657" y="234.535" width="41.4077" height="85.4655" rx="3.51536" fill="#00ADB5" stroke="black" stroke-width="1.64486" stroke-linejoin="round"/>
<rect x="2.33484" y="259.214" width="41.4077" height="60.7865" rx="3.51536" fill="#EEEEEE" stroke="black" stroke-width="1.64486" stroke-linejoin="round"/>
<rect x="194.467" y="139.794" width="41.4077" height="180.206" rx="3.51536" fill="#00ADB5" stroke="black" stroke-width="1.64486" stroke-linejoin="round"/>
<path d="M57.247 117.856L99.8208 117.856C99.8208 117.856 93.0357 179.864 83.8012 190.03C74.5666 200.196 26.2367 228.077 26.2367 228.077L9.96036 218.087L40.3027 170.302C40.3027 170.302 36.9659 151.667 57.247 117.856Z" fill="#00ADB5" stroke="black" stroke-width="1.39887"/>
<path d="M26.9249 227.518L9.96039 218.09L1.37456 227.334C1.37456 227.334 15.8484 235.724 25.9464 239.012L21.6696 233.37L26.9249 227.518Z" fill="#EEEEEE" stroke="black" stroke-width="1.39887" stroke-linejoin="round"/>
<path d="M57.4286 116.953L103.946 116.891C103.946 116.891 129.805 139.631 133.063 152.973C136.321 166.315 132.605 214.735 132.605 214.735L113.804 223.047L94.3948 171.905C94.3948 171.905 74.1015 152.681 57.4286 116.953Z" fill="#00ADB5"/>
<path d="M57.4286 116.953L57.4277 116.253C57.1888 116.253 56.9666 116.376 56.8384 116.577C56.7102 116.779 56.6938 117.032 56.7948 117.248L57.4286 116.953ZM103.946 116.891L104.408 116.366L104.209 116.192L103.945 116.192L103.946 116.891ZM132.605 214.735L132.888 215.375L133.271 215.206L133.303 214.789L132.605 214.735ZM113.804 223.047L113.151 223.296L113.412 223.986L114.087 223.687L113.804 223.047ZM94.3948 171.905L95.0487 171.657L94.992 171.507L94.8758 171.397L94.3948 171.905ZM57.4296 117.652L103.947 117.591L103.945 116.192L57.4277 116.253L57.4296 117.652ZM132.322 214.095L113.522 222.408L114.087 223.687L132.888 215.375L132.322 214.095ZM114.458 222.799L95.0487 171.657L93.7409 172.153L113.151 223.296L114.458 222.799ZM94.3948 171.905C94.8758 171.397 94.8759 171.397 94.8759 171.397C94.8757 171.397 94.8756 171.397 94.8754 171.397C94.875 171.396 94.8742 171.396 94.8732 171.395C94.871 171.393 94.8677 171.389 94.8631 171.385C94.854 171.376 94.84 171.363 94.8212 171.345C94.7837 171.309 94.7271 171.254 94.6522 171.181C94.5023 171.034 94.279 170.813 93.9882 170.518C93.4065 169.928 92.5546 169.044 91.4792 167.87C89.3282 165.523 86.2834 162.019 82.7177 157.4C75.5861 148.161 66.3735 134.467 58.0625 116.657L56.7948 117.248C65.1567 135.167 74.4272 148.949 81.6104 158.254C85.2022 162.907 88.2727 166.442 90.4478 168.815C91.5354 170.002 92.3992 170.899 92.9924 171.5C93.289 171.801 93.518 172.028 93.6735 172.18C93.7513 172.256 93.8107 172.314 93.851 172.353C93.8711 172.372 93.8865 172.387 93.897 172.397C93.9022 172.402 93.9063 172.406 93.9091 172.408C93.9105 172.41 93.9116 172.411 93.9124 172.411C93.9128 172.412 93.9131 172.412 93.9133 172.412C93.9136 172.412 93.9138 172.413 94.3948 171.905ZM103.946 116.891C103.484 117.417 103.484 117.417 103.484 117.417C103.484 117.417 103.485 117.417 103.485 117.417C103.486 117.418 103.487 117.419 103.488 117.42C103.491 117.423 103.496 117.427 103.502 117.432C103.514 117.443 103.532 117.459 103.556 117.481C103.605 117.523 103.677 117.587 103.771 117.672C103.96 117.84 104.238 118.09 104.593 118.412C105.304 119.057 106.323 119.995 107.557 121.161C110.025 123.495 113.348 126.744 116.772 130.407C120.197 134.071 123.712 138.14 126.571 142.115C129.44 146.105 131.602 149.938 132.383 153.139L133.742 152.807C132.895 149.337 130.602 145.325 127.707 141.298C124.8 137.257 121.24 133.139 117.793 129.451C114.345 125.762 111 122.492 108.518 120.145C107.276 118.971 106.25 118.027 105.534 117.377C105.175 117.051 104.894 116.799 104.703 116.628C104.607 116.543 104.534 116.477 104.484 116.433C104.459 116.411 104.44 116.395 104.427 116.383C104.421 116.378 104.416 116.374 104.413 116.371C104.411 116.369 104.41 116.368 104.409 116.367C104.409 116.367 104.408 116.367 104.408 116.366C104.408 116.366 104.408 116.366 103.946 116.891ZM132.383 153.139C133.177 156.39 133.556 161.846 133.666 168.264C133.776 174.662 133.617 181.951 133.357 188.831C133.096 195.71 132.734 202.173 132.437 206.917C132.288 209.289 132.156 211.231 132.061 212.579C132.013 213.253 131.975 213.779 131.949 214.137C131.935 214.315 131.925 214.452 131.918 214.543C131.915 214.589 131.912 214.624 131.911 214.647C131.91 214.658 131.909 214.667 131.909 214.673C131.908 214.676 131.908 214.678 131.908 214.679C131.908 214.68 131.908 214.681 131.908 214.681C131.908 214.681 131.908 214.682 132.605 214.735C133.303 214.789 133.303 214.788 133.303 214.788C133.303 214.788 133.303 214.787 133.303 214.786C133.303 214.785 133.303 214.782 133.303 214.78C133.304 214.774 133.304 214.765 133.305 214.753C133.307 214.729 133.31 214.694 133.313 214.648C133.32 214.556 133.33 214.419 133.344 214.24C133.37 213.881 133.409 213.354 133.456 212.678C133.552 211.326 133.684 209.381 133.833 207.005C134.131 202.253 134.494 195.778 134.755 188.884C135.016 181.991 135.175 174.674 135.065 168.24C134.955 161.827 134.577 156.227 133.742 152.807L132.383 153.139Z" fill="black"/>
<path fill-rule="evenodd" clip-rule="evenodd" d="M98.2281 41.0891C99.2862 40.7031 100.294 40.139 101.213 39.3556C108.154 33.4426 105.178 24.5214 100.977 19.8769C96.777 15.2323 71.0815 17.0849 83.2029 38.6012C83.254 38.632 83.3061 38.6629 83.3591 38.6941C84.7142 43.0063 83.5713 46.705 82.2 51.1429C81.6407 52.953 81.0434 54.886 80.5621 57.0338L93.418 56.1126C96.9515 51.3144 98.2912 46.4778 98.2281 41.0891Z" fill="#F5B9AB"/>
<path d="M101.213 39.3557L100.68 38.7297L100.68 38.7297L101.213 39.3557ZM98.2281 41.0892L97.9462 40.3165C97.6183 40.4362 97.4016 40.7498 97.4057 41.0988L98.2281 41.0892ZM100.977 19.8769L101.587 19.3253L101.587 19.3253L100.977 19.8769ZM83.2029 38.6013L82.4864 39.0049C82.5562 39.1288 82.6568 39.2324 82.7786 39.3058L83.2029 38.6013ZM83.3591 38.6941L84.1437 38.4476C84.0826 38.2531 83.9514 38.0883 83.7757 37.985L83.3591 38.6941ZM82.2 51.143L81.4142 50.9001L81.4142 50.9002L82.2 51.143ZM80.5621 57.0338L79.7596 56.854C79.7027 57.1077 79.7692 57.3734 79.9389 57.5705C80.1086 57.7675 80.3615 57.8727 80.6209 57.8541L80.5621 57.0338ZM93.418 56.1126L93.4767 56.933C93.7169 56.9158 93.9374 56.7942 94.0802 56.6003L93.418 56.1126ZM100.68 38.7297C99.8395 39.4456 98.9184 39.9619 97.9462 40.3165L98.5099 41.8618C99.654 41.4444 100.748 40.8324 101.747 39.9817L100.68 38.7297ZM100.367 20.4286C102.372 22.645 104.077 25.8811 104.456 29.233C104.831 32.5471 103.916 35.9727 100.68 38.7297L101.747 39.9817C105.451 36.8257 106.519 32.8342 106.09 29.0482C105.666 25.3001 103.783 21.7534 101.587 19.3253L100.367 20.4286ZM83.9195 38.1976C80.9445 32.9168 80.3735 28.9879 81.0744 26.1419C81.7697 23.3181 83.762 21.3836 86.3213 20.1721C88.8923 18.9551 91.979 18.501 94.6816 18.6388C96.0294 18.7075 97.2568 18.9223 98.2559 19.2475C99.2703 19.5777 99.9783 19.9983 100.367 20.4286L101.587 19.3253C100.926 18.5944 99.9125 18.0569 98.765 17.6834C97.6023 17.305 96.2278 17.0706 94.7654 16.9961C91.8475 16.8473 88.4803 17.3303 85.6176 18.6854C82.7432 20.046 80.3218 22.3187 79.4772 25.7486C78.638 29.1563 79.4007 33.5276 82.4864 39.0049L83.9195 38.1976ZM83.7757 37.985C83.7252 37.9554 83.6758 37.926 83.6273 37.8968L82.7786 39.3058C82.8323 39.3381 82.8869 39.3706 82.9425 39.4032L83.7757 37.985ZM82.9858 51.3858C84.3464 46.9823 85.5868 43.0399 84.1437 38.4476L82.5745 38.9407C83.8416 42.9729 82.7962 46.4278 81.4142 50.9001L82.9858 51.3858ZM81.3646 57.2137C81.8378 55.1021 82.4257 53.1985 82.9858 51.3858L81.4142 50.9002C80.8558 52.7075 80.249 54.67 79.7596 56.854L81.3646 57.2137ZM93.3592 55.2923L80.5033 56.2135L80.6209 57.8541L93.4767 56.933L93.3592 55.2923ZM97.4057 41.0988C97.4669 46.322 96.1757 50.981 92.7557 55.625L94.0802 56.6003C97.7273 51.6479 99.1155 46.6338 99.0504 41.0795L97.4057 41.0988Z" fill="black"/>
<path d="M80.8967 25.6083C78.885 28.4071 81.0517 35.3196 82.6504 37.0486C69.4035 29.6983 77.79 13.1142 81.8773 16.1384C82.5434 10.0071 89.5788 7.84377 94.3748 13.0293C106.399 3.31877 107.032 19.8652 102.788 22.3815C98.5436 24.8978 93.3944 22.5015 90.7221 23.7991C88.0498 25.0967 86.4007 32.9567 85.5351 28.5942C84.6695 24.2318 83.4113 22.1097 80.8967 25.6083Z" fill="#00ADB5" stroke="black" stroke-width="1.64486"/>
<path d="M105.499 117.945C119.364 108.723 113.578 76.8563 111.605 67.7961C111.25 66.166 110.725 64.6023 110.087 63.0607C104.846 50.3909 91.9159 40.186 79.5321 46.0714C53.1544 58.6075 57.0759 98.5955 57.3248 118.244L105.499 117.945Z" fill="#EEEEEE" stroke="black" stroke-width="1.64486" stroke-linejoin="round"/>
<path d="M147.205 74.8251L136.076 61.2442L98.5784 87.479L86.4589 63.0841L70.7658 87.4787C70.7658 87.4787 87.7667 113.883 96.403 113.116C112.141 111.718 147.205 74.8251 147.205 74.8251Z" fill="#EEEEEE"/>
<path d="M87.289 64.8642L98.4724 86.73L136.075 61.2446L147.204 74.8255C147.204 74.8255 114.15 111.49 94.8346 113.206C88.7554 113.746 71.044 87.2146 71.044 87.2146" stroke="black" stroke-width="1.64486"/>
<path d="M139.776 58.7935L135.368 61.6225L146.432 75.6412L149.913 72.8218C153.615 69.8223 154.202 64.3962 151.226 60.6747C148.454 57.2082 143.511 56.3962 139.776 58.7935Z" fill="#F5B9AB" stroke="black" stroke-width="1.64486" stroke-linejoin="round"/>
<path d="M132.833 212.971L113.805 222.892L117.078 235.289L142.486 219.642L135.01 220.658L132.833 212.971Z" fill="#EEEEEE" stroke="black" stroke-width="1.39887" stroke-linejoin="round"/>
</svg>
