<svg width="92" height="184" viewBox="0 0 92 184" fill="none" xmlns="http://www.w3.org/2000/svg">
<path d="M2.38203 9.22055C15.5411 4.53574 31.1767 -3.51582 40.7521 10.9096C45.3021 17.7642 42.0946 30.7326 36.747 36.059C32.3111 40.4772 28.3915 47.5423 20.983 46.1929C15.1638 45.133 10.6517 40.573 10.7867 34.3838C11.1698 16.8077 33.1115 23.6165 39.5442 32.0333C48.3244 43.5215 37.2679 80.8952 20.6192 81.09C6.34463 81.2571 10.8348 65.6342 22.1459 63.9983C38.0575 61.697 45.4936 67.7401 45.8984 85.5749C46.2144 99.5003 32.1339 111.162 20.1302 113.241C17.6371 113.673 4.05422 120.108 3.89724 118.123C2.34821 98.5332 34.4286 99.9916 42.9597 111.337C52.7618 124.372 62.5309 137.673 62.0829 154.139C61.842 162.994 53.6061 188.167 57.8032 180.366C63.0557 170.604 71.0431 157.896 81.512 152.794C84.6272 151.276 94.4577 146.188 85.2954 151.461C75.8593 156.893 67.4212 161.457 59.5816 168.2C57.837 169.701 57.9183 174.085 57.3975 176.204C56.9564 177.998 53.3516 172.011 52.8092 171.422C48.1261 166.338 41.6621 164.166 35.0671 162.736C29.1807 161.46 21.0205 161.612 19.3446 157.518" stroke="#00ADB5" stroke-opacity="0.2" stroke-width="4" stroke-linecap="round" stroke-linejoin="round"/>
</svg>
